<?xml version="1.0" encoding="UTF-8" standalone="no"?>
<svg
   xmlns:dc="http://purl.org/dc/elements/1.1/"
   xmlns:cc="http://creativecommons.org/ns#"
   xmlns:rdf="http://www.w3.org/1999/02/22-rdf-syntax-ns#"
   xmlns:svg="http://www.w3.org/2000/svg"
   xmlns="http://www.w3.org/2000/svg"
   viewBox="0 0 3360 2304"
   height="2304"
   width="3360"
   xml:space="preserve"
   id="svg2"
   version="1.1"><metadata
     id="metadata8"><rdf:RDF><cc:Work
         rdf:about=""><dc:format>image/svg+xml</dc:format><dc:type
           rdf:resource="http://purl.org/dc/dcmitype/StillImage" /></cc:Work></rdf:RDF></metadata><defs
     id="defs6" /><g
     transform="matrix(1.3333333,0,0,-1.3333333,0,2304)"
     id="g10"><text
       id="text16"
       style="font-variant:normal;font-weight:normal;font-stretch:normal;font-size:12px;font-family:'Century Gothic';-inkscape-font-specification:CenturyGothic;writing-mode:lr-tb;fill:#000000;fill-opacity:1;fill-rule:nonzero;stroke:none"
       transform="matrix(1,0,0,-1,-232.9193,1700.5742)"><tspan
         id="tspan12"
         y="0"
         x="0">A</tspan><tspan
         id="tspan14"
         y="290.16"
         x="0">A</tspan></text>
<g
       transform="translate(-222.4,1703.3)"
       id="g18"><path
         id="path20"
         style="fill:none;stroke:#000000;stroke-width:0.99199998;stroke-linecap:butt;stroke-linejoin:miter;stroke-miterlimit:10;stroke-dasharray:none;stroke-opacity:1"
         d="M 0,0 18,2.9 V -2.9 L 0,0 m 0,-290.2 18,2.9 v -5.7 l -18,2.8" /></g><g
       transform="translate(-186.4,1703.3)"
       id="g22"><path
         id="path24"
         style="fill:none;stroke:#000000;stroke-width:0.99199998;stroke-linecap:round;stroke-linejoin:round;stroke-miterlimit:10;stroke-dasharray:none;stroke-opacity:1"
         d="M 0,0 H -36 M 0,-290.2 h -36" /></g><g
       transform="translate(-186.4385,1703.3536)"
       id="g26"><path
         id="path28"
         style="fill:none;stroke:#000000;stroke-width:0.99199998;stroke-linecap:round;stroke-linejoin:round;stroke-miterlimit:10;stroke-dasharray:18, 3.6, 3.6, 3.6, 3.6, 3.6;stroke-dashoffset:7.92000008;stroke-opacity:1"
         d="M 0,0 V -290.16" /></g><g
       transform="translate(-533,1455.6)"
       id="g30"><path
         id="path32"
         style="fill:none;stroke:#808080;stroke-width:0.70899999;stroke-linecap:round;stroke-linejoin:round;stroke-miterlimit:10;stroke-dasharray:none;stroke-opacity:1"
         d="M 0,0 H -3.6 M 0,0 v 18 m 0,0 h -3.6 m 0,-18 v 18" /></g><g
       transform="translate(-533,1506)"
       id="g34"><path
         id="path36"
         style="fill:none;stroke:#000000;stroke-width:0.50999999;stroke-linecap:round;stroke-linejoin:round;stroke-miterlimit:10;stroke-dasharray:none;stroke-opacity:1"
         d="M 0,0 V 7.2 M 0,0 H -7.2 M 0,0 V -7.2 M 0,0 h 7.2" /></g><g
       transform="translate(-533,1520.4)"
       id="g38"><path
         id="path40"
         style="fill:none;stroke:#000000;stroke-width:0.50999999;stroke-linecap:round;stroke-linejoin:round;stroke-miterlimit:10;stroke-dasharray:none;stroke-opacity:1"
         d="M 0,0 V 10.8 M -14.4,-14.4 H -25.2 M 0,-28.8 v -10.8 m 14.4,25.2 h 10.8" /></g><g
       transform="translate(-222.4,1703.3)"
       id="g42"><path
         id="path44"
         style="fill:#000000;fill-opacity:1;fill-rule:nonzero;stroke:none"
         d="m 0,0 18,2.9 v -5.8 m -18,-287.3 18,2.9 v -5.7" /></g><g
       transform="translate(-384.5,1640.1)"
       id="g46"><path
         id="path48"
         style="fill:none;stroke:#000000;stroke-width:0.70899999;stroke-linecap:round;stroke-linejoin:round;stroke-miterlimit:10;stroke-dasharray:none;stroke-opacity:1"
         d="M 0,0 0.1,0.7 0.3,1.4 0.6,2 1.1,2.6 1.6,3 2.2,3.3 2.9,3.6 h 0.7 m 0,-18 -0.7,0.1 -0.7,0.2 -0.6,0.3 -0.5,0.5 -0.5,0.5 -0.3,0.6 -0.2,0.7 -0.1,0.7 m 18,0 -0.1,-0.7 -0.2,-0.7 -0.3,-0.6 -0.4,-0.5 -0.6,-0.5 -0.6,-0.3 -0.7,-0.2 -0.7,-0.1 m 0,18 h 0.7 L 15.8,3.3 16.4,3 17,2.6 17.4,2 17.7,1.4 17.9,0.7 18,0 m -170.1,-180.9 -0.1,-0.7 -0.2,-0.7 -0.3,-0.6 -0.4,-0.5 -0.6,-0.5 -0.6,-0.3 -0.7,-0.2 -0.7,-0.1 m 0,177.3 -3.6,3.6 m 21.6,0 -3.6,-3.6 m 0,21.6 3.6,-3.6 m -21.6,0 3.6,3.6 m 18,-18 v 14.4 m -3.6,3.6 h -14.4 m -3.6,-3.6 V -3.6 m 28.8,-130.5 -0.1,2 -0.3,2 -0.6,1.9 -0.7,1.8 -1,1.7 -1.1,1.7 -1.3,1.5 -1.4,1.3 -1.6,1.2 -1.8,1 -1.8,0.8 -1.9,0.6 -1.9,0.4 -2,0.1 h -2 l -1.9,-0.3 -2,-0.5 -1.8,-0.7 -1.8,-0.9 -1.7,-1.1 -1.5,-1.2 -1.4,-1.5 -1.2,-1.5 -1,-1.7 -0.9,-1.8 -0.6,-1.9 -0.4,-1.9 -0.3,-2 v -2 l 0.3,-1.9 0.4,-2 0.6,-1.9 0.9,-1.7 1,-1.7 1.2,-1.6 1.4,-1.4 1.5,-1.3 1.7,-1.1 1.8,-0.9 1.8,-0.7 2,-0.4 1.9,-0.3 2,-0.1 2,0.2 1.9,0.4 1.9,0.6 1.8,0.8 1.8,1 1.6,1.1 1.4,1.4 1.3,1.5 1.1,1.6 1,1.7 0.7,1.9 0.6,1.9 0.3,1.9 0.1,2 m -25.2,-32.4 h -10.8 m -3.6,-3.6 v -10.8 m 3.6,-3.6 h 10.8 m 3.6,3.6 v 10.8 m 48.1,34.2 -1.5,0.2 -1.4,0.3 -1.3,0.7 -1.3,0.8 -1,1.1 -0.9,1.2 -0.6,1.3 -0.4,1.5 -0.1,1.4 m -43.2,120.2 h 14.4 M 0.7,-153 v -10.8 m 3.6,14.4 H 3.6 L 3,-149.7 2.3,-150 1.8,-150.4 1.3,-151 1,-151.6 0.8,-152.3 0.7,-153 m 14.4,3.6 H 4.3 m 14.4,-3.6 v 0.7 l -0.2,0.7 -0.4,0.6 -0.4,0.6 -0.6,0.4 -0.6,0.3 -0.7,0.3 h -0.7 m 3.6,-14.4 v 10.8 m -3.6,-14.4 0.7,0.1 0.7,0.2 0.6,0.3 0.6,0.5 0.4,0.5 0.4,0.6 0.2,0.7 v 0.7 m -14.4,-3.6 h 10.8 m -14.4,3.6 0.1,-0.7 0.2,-0.7 0.3,-0.6 0.5,-0.5 0.5,-0.5 0.7,-0.3 0.6,-0.2 0.7,-0.1 m -0.7,153 H 14.4 M 0,0 V -10.8 M 14.4,3.6 H 3.6 M 18,-10.8 V 0 M -104,-27.9 H 31.5 m -144,-99.5 v 91 m 144,-99.5 H -104 m 135.5,-63 v 63 m -216,-63 h 216 m -216,234 v -234 m 216,234 h -216 m 28.8,-201.6 h 0.7 l 0.7,-0.3 0.6,-0.3 0.6,-0.4 0.4,-0.6 0.3,-0.6 0.2,-0.7 0.1,-0.7 m 39.6,133.7 0.1,1.5 0.4,1.4 0.6,1.4 0.9,1.2 1,1 1.3,0.9 1.3,0.6 1.4,0.4 1.5,0.1 m -62.5,-156.6 -0.7,0.1 -0.7,0.2 -0.6,0.3 -0.5,0.5 -0.5,0.5 -0.3,0.6 -0.2,0.7 -0.1,0.7 m 0,10.8 0.1,0.7 0.2,0.7 0.3,0.6 0.5,0.6 0.5,0.4 0.6,0.3 0.7,0.3 h 0.7 m 198,138.6 v 63 m -156.8,-58.6 h -3 m 0,0 3.6,-3.4 m 0,0 0.4,-0.5 0.1,-0.2 v -0.2 m -1.5,-0.5 -2,2.2 m 0,0 -3.6,-2.5 m 0,0 -0.6,-0.4 -0.6,-0.1 m 0,0 -0.3,0.1 -0.2,0.2 -0.1,0.2 -0.1,0.3 m 1.1,1.3 3.2,2.1 m 0,0 -1.4,1.4 m 0,0 h -1.8 m 0,0 -0.4,0.1 -0.4,0.2 -0.2,0.2 -0.1,0.4 m 0,0 0.1,0.2 0.1,0.2 0.3,0.3 m 0,0 0.5,0.1 h 0.5 m 0,0 h 6.5 m 0,0 h 0.4 l 0.4,-0.2 0.2,-0.3 v -0.3 m 0,0 -0.1,-0.4 -0.3,-0.3 -0.7,-0.2 m 1.1,-4.3 v -0.4 l -0.2,-0.3 -0.3,-0.1 -0.2,-0.1 m 0,0 -0.5,0.2 -0.3,0.2 m -7.5,0 0.1,0.5 0.3,0.4 0.7,0.4 m 6.4,-5.5 h -2.6 m 0,0 v -1.2 m 0,0 v -0.6 l 0.2,-0.6 0.2,-0.3 0.2,-0.2 0.7,-0.1 m 0,0 0.5,0.1 0.4,0.2 m 0,0 0.2,0.4 0.1,0.4 0.1,0.7 m 0,0 v 1.2 m -4,-1.6 v 1.6 m 0,0 h -2.4 m 0,0 -0.4,0.1 -0.4,0.2 -0.2,0.2 -0.1,0.4 m 0,0 0.1,0.4 0.3,0.3 0.7,0.1 m 0,0 h 6.6 m 0,0 0.5,-0.1 0.4,-0.2 0.2,-0.4 v -0.4 m 0,0 v -2.2 m -0.2,-1.5 -0.3,-0.8 -0.7,-0.6 -0.7,-0.2 -0.7,-0.1 m 0,0 -0.9,0.1 -0.8,0.4 -0.6,0.7 -0.3,1 -0.1,1 m 5.3,0 v -0.8 l -0.2,-0.7 m -4.8,-3.3 h 4.2 m 0,0 h 0.4 l 0.4,-0.2 0.2,-0.3 v -0.3 m 0,0 -0.1,-0.5 -0.3,-0.2 -0.6,-0.2 m 0,0 h -4.4 m 0,0 -0.9,-0.1 -0.9,-0.4 -0.3,-0.7 -0.1,-0.7 m 0,0 v -0.6 l 0.3,-0.6 0.5,-0.4 0.7,-0.3 h 0.7 m 0,0 h 4.4 m 0,0 0.4,-0.1 0.4,-0.1 0.2,-0.3 v -0.3 m 0,0 -0.1,-0.5 -0.3,-0.3 -0.6,-0.1 m 0,0 h -4.2 m 0,0 h -0.9 l -0.9,0.2 -0.6,0.3 -0.6,0.4 m 0,0 -0.4,0.6 -0.2,0.8 -0.2,1.2 m 0,0 0.1,1.1 0.4,1.1 0.7,0.9 1.2,0.5 1.4,0.1 m 3.7,-13.9 h -2.6 m 0,0 V -54 m 0,0 v -0.7 l 0.2,-0.6 0.2,-0.2 0.2,-0.2 0.7,-0.2 m 0.9,0.3 0.2,0.4 0.1,0.5 0.1,0.7 m 0,0 v 1.2 m -4,-1.6 v 1.6 m 0,0 h -2.4 m 0,0 h -0.4 l -0.4,0.2 -0.2,0.3 -0.1,0.3 m 0,0 0.1,0.4 0.3,0.3 0.7,0.1 m 0,0 h 6.6 m 0,0 h 0.5 l 0.4,-0.3 0.2,-0.4 v -0.3 m 0,0 v -2.3 m 0,0 v -0.8 l -0.2,-0.7 m 0,0 -0.3,-0.8 -0.7,-0.6 -0.7,-0.2 -0.7,-0.1 m 0,0 -0.9,0.1 -0.8,0.4 -0.6,0.7 -0.3,1 -0.1,1.1 m 2.7,-1.5 0.5,0.1 0.4,0.2 m 0.8,-5.3 h -2.5 m 0,0 v -3.9 m 0,0 h 2.5 m 1.1,-0.8 -0.1,-0.4 -0.3,-0.3 -0.6,-0.2 m 0,0 h -6.9 m 0,0 -0.4,0.1 -0.4,0.2 -0.2,0.3 -0.1,0.3 m 0,0 0.1,0.4 0.3,0.3 0.7,0.1 m 0,0 h 2.9 m 0,0 v 3.9 m 0,0 h -2.9 m 0,0 h -0.4 l -0.4,0.2 -0.2,0.3 -0.1,0.3 m 0,0 0.1,0.4 0.3,0.3 0.7,0.1 m 0,0 h 6.9 m 0,0 h 0.4 l 0.4,-0.2 0.2,-0.3 v -0.3 m 0,0 -0.1,-0.4 -0.3,-0.3 -0.7,-0.1 m 0,-3.9 h 0.5 l 0.4,-0.2 0.2,-0.3 v -0.3 m -7.9,-4.8 h 2.8 m 0,0 3.3,2.1 m 1.1,0.5 h 0.3 l 0.3,-0.3 0.1,-0.2 v -0.3 m 0,0 -0.1,-0.4 -0.3,-0.3 -0.6,-0.4 m 0,0 -2.7,-1.6 m 0,0 2.7,-1.6 m 0.3,-1.9 -0.6,0.3 -0.5,0.2 m 0,0 -3.3,2.2 m 0,0 h -2.8 m -1.1,0.9 0.1,0.4 0.3,0.3 0.7,0.1 m 0,-1.7 -0.4,0.1 -0.4,0.2 -0.2,0.2 -0.1,0.4 m 7.2,2.9 0.6,0.4 0.5,0.1 m -0.3,-5.1 0.7,-0.5 0.3,-0.2 V -74 m 0,0 v -0.3 l -0.2,-0.3 -0.2,-0.1 -0.3,-0.1 m -5.5,-7.9 -0.9,0.2 -0.8,0.5 -0.6,0.7 -0.4,1 -0.1,1.1 m 0,0 0.2,1.3 0.3,0.9 m 0,0 0.5,0.5 0.6,0.4 0.5,0.3 0.5,0.1 m 0,0 0.4,-0.1 0.2,-0.2 0.2,-0.2 v -0.3 m 0,0 -0.1,-0.3 -0.2,-0.2 -0.4,-0.3 m 0,0 -0.6,-0.3 -0.5,-0.5 -0.2,-0.5 v -0.6 m 0,0 v -0.6 l 0.3,-0.5 0.4,-0.5 0.2,-0.1 0.3,-0.1 m 0,0 0.4,0.1 0.3,0.2 0.4,0.5 0.4,1.4 m 0,0 0.3,1.1 0.6,1 0.7,0.6 0.9,0.2 m 0,0 1.1,-0.3 0.8,-0.8 0.4,-1 0.1,-1.2 m 0,0 -0.1,-1.1 -0.5,-1.1 -0.6,-0.6 -0.9,-0.3 m 0,0 -0.3,0.1 -0.3,0.2 -0.1,0.2 -0.1,0.3 m 0,0 v 0.3 l 0.2,0.2 0.4,0.3 m 0,0 0.5,0.3 0.4,0.4 0.2,0.9 m -1,1.6 h -0.3 l -0.3,-0.2 -0.3,-0.5 -0.3,-1.2 m 0,0 -0.4,-1.3 -0.6,-1.1 -0.8,-0.7 -1,-0.2 m 5,3.6 -0.2,1 -0.3,0.4 -0.3,0.2 h -0.2 m -5.7,-6.7 h 6.9 m 1,-0.9 -0.1,-0.4 -0.3,-0.3 -0.6,-0.1 m 0,0 h -6.9 m 0,0 h -0.4 l -0.4,0.2 -0.2,0.3 -0.1,0.3 m 0,0 0.1,0.4 0.3,0.3 0.7,0.2 m 6.9,0 0.4,-0.1 0.4,-0.2 0.2,-0.2 v -0.4 m -7.8,-3.6 0.9,0.5 0.9,0.4 1.5,0.2 m 4.5,-4.2 -0.2,-1.3 -0.6,-1.2 -0.8,-0.7 -1,-0.4 m -0.8,0.8 0.1,0.3 0.2,0.3 0.5,0.3 m 0,0 0.6,0.3 0.4,0.6 0.3,1 m 0,0 -0.2,0.8 -0.4,0.7 -0.7,0.5 -1,0.3 -0.9,0.1 m -1.6,-4.4 0.6,-0.3 0.1,-0.2 0.1,-0.3 m 0,0 -0.1,-0.3 -0.2,-0.3 -0.2,-0.1 -0.3,-0.1 m 0,0 -0.9,0.2 -0.8,0.5 -0.6,0.8 -0.4,1 -0.2,1.1 m 0,0 0.1,1 0.3,0.9 0.8,1.2 m 3.3,1.1 1.3,-0.1 1.2,-0.5 1,-0.8 0.8,-1.3 0.2,-1.5 m -2.6,-3.6 -0.3,0.1 -0.3,0.2 -0.1,0.2 -0.1,0.3 m -4.2,2.9 0.1,-0.8 0.4,-0.6 1,-0.7 m 1.6,4.4 -1.3,-0.1 -1.1,-0.5 -0.5,-0.8 -0.2,-0.9 m 1.4,-11.9 -0.9,0.2 -0.8,0.4 -0.6,0.8 -0.4,1 -0.1,1.1 m 0,0 0.2,1.2 0.3,0.9 m 0,0 0.5,0.6 0.6,0.4 0.5,0.2 0.5,0.1 m 0,0 h 0.4 l 0.2,-0.2 0.2,-0.3 v -0.2 m 0,0 -0.1,-0.3 -0.2,-0.3 -0.4,-0.2 m 0,0 -0.6,-0.3 -0.5,-0.5 -0.2,-0.5 v -0.6 m 0,0 v -0.6 l 0.3,-0.6 0.4,-0.4 0.2,-0.2 h 0.3 m 0,0 0.4,0.1 0.3,0.1 0.4,0.6 0.4,1.3 m 0,0 0.3,1.2 0.6,1 0.7,0.6 0.9,0.2 m 2.4,-3.3 -0.1,-1.2 -0.5,-1 -0.6,-0.6 -0.9,-0.3 m 0,0 -0.3,0.1 -0.3,0.2 -0.1,0.2 -0.1,0.2 m 0,0 v 0.3 l 0.2,0.3 0.4,0.2 m 0,0 0.5,0.3 0.4,0.5 0.2,0.9 m -1,1.6 -0.3,-0.1 -0.3,-0.1 -0.3,-0.6 -0.3,-1.2 m 0,0 -0.4,-1.2 -0.6,-1.2 -0.8,-0.6 -1,-0.2 m 5,3.6 -0.2,1 -0.3,0.4 -0.3,0.1 -0.2,0.1 m -0.2,1.6 1.1,-0.3 0.8,-0.8 0.4,-1.1 0.1,-1.1 m -18.9,67.6 h -2.6 m 0,0 v -1.2 m 0,0 0.1,-0.6 0.1,-0.6 0.2,-0.3 0.3,-0.2 0.6,-0.1 m 0,0 0.6,0.1 0.3,0.2 m 0,0 0.3,0.4 0.1,0.4 v 0.7 m 0,0 v 1.2 m -3.9,-1.6 v 1.6 m 0,0 h -2.5 m 0,0 -0.4,0.1 -0.4,0.2 -0.2,0.2 v 0.4 m 0,0 0.1,0.4 0.3,0.3 0.6,0.1 m 0,0 h 6.7 m 0,0 0.5,-0.1 0.4,-0.2 0.1,-0.4 0.1,-0.4 m 0,0 v -2.2 m 0,0 -0.1,-0.8 -0.1,-0.7 m 0,0 -0.4,-0.8 -0.7,-0.6 -0.6,-0.2 -0.7,-0.1 m 0,0 -0.9,0.1 -0.8,0.4 -0.6,0.7 -0.3,1 -0.1,1 m 3.9,-8.1 v 1.6 m 0,0 h -2.4 m 0,0 v -1.5 m 0,0 0.1,-0.7 0.1,-0.6 0.2,-0.3 0.2,-0.2 0.3,-0.1 0.3,-0.1 m 0,0 0.4,0.1 0.3,0.2 0.4,0.4 m 0,0 0.1,0.7 v 0.5 m -3.6,1 v 0.6 m 0,0 h -2.8 m 0,0 -0.4,0.1 -0.4,0.2 -0.2,0.2 v 0.4 m 0,0 0.1,0.4 0.3,0.3 0.6,0.1 m 0,0 h 6.7 m 0,0 0.5,-0.1 0.4,-0.2 0.1,-0.4 0.1,-0.4 m 0,0 v -2.8 m 0,0 -0.1,-0.9 -0.2,-0.8 m 0,0 -0.4,-0.6 -0.6,-0.5 -1.1,-0.3 m 0,0 -1,0.2 -0.8,0.6 -0.4,0.7 -0.2,0.8 m 0,0 -0.7,-1 -1,-0.7 -0.8,-0.4 -0.8,-0.3 m 0,0 -0.3,0.1 -0.3,0.2 -0.1,0.3 v 0.2 m 0,0 0.1,0.5 0.3,0.3 0.7,0.5 m 0,0 1.2,0.7 m 0,0 0.6,0.4 0.6,0.5 0.2,0.5 0.1,0.6 m 3.8,-10.3 -0.1,0.9 -0.4,0.7 -0.7,0.5 -0.9,0.3 -1,0.1 m 0,0 -1.2,-0.2 -1.2,-0.5 -0.6,-0.8 -0.2,-1 m 0,0 0.4,-1.2 0.9,-0.9 0.9,-0.3 1,-0.1 m 0,0 1.3,0.2 1.1,0.6 0.5,0.8 0.2,0.9 m 1.4,0 -0.2,-1.3 -0.5,-1.2 -0.9,-0.9 -1.4,-0.7 -1.5,-0.2 m 0,0 -1.3,0.2 -1.2,0.4 -1.1,0.8 -0.7,1.4 -0.2,1.5 m 0,0 0.1,1.3 0.6,1.2 0.9,0.9 1.4,0.7 1.5,0.2 m 0,0 1.3,-0.2 1.2,-0.4 1,-0.8 0.8,-1.4 0.2,-1.5 m -1.1,-10.8 h -4.5 m -3.4,2.8 v 0.8 l 0.3,0.8 0.3,0.5 0.5,0.4 m 0,0 0.9,0.3 0.7,0.1 m 0.9,-0.8 -0.1,-0.4 -0.2,-0.2 -0.6,-0.2 m 0.4,-2.4 h 4.8 m 0,0 0.4,-0.1 0.4,-0.1 0.2,-0.3 0.1,-0.3 m -5.6,-0.9 -1.1,0.1 -0.8,0.2 m 1.2,5.4 0.4,-0.1 0.3,-0.2 0.1,-0.2 0.1,-0.3 m -2.3,-2 0.2,-0.6 0.2,-0.2 0.2,-0.2 0.6,-0.2 h 0.6 m 5.9,-0.8 -0.1,-0.5 -0.3,-0.3 -0.7,-0.1 m -6.4,0.3 -0.7,0.4 -0.6,0.8 -0.2,0.6 v 0.7 m 2.7,1.3 -0.5,-0.2 -0.5,-0.2 -0.3,-0.4 -0.1,-0.4 m 6.3,-10.5 -0.1,0.4 -0.2,0.4 -0.9,0.4 -2,0.2 m 0,0 h -0.9 l -1,-0.2 -0.9,-0.4 -0.3,-0.4 -0.1,-0.4 m 0,0 0.1,-0.5 0.3,-0.4 0.9,-0.4 1,-0.2 h 1 m 0,0 h 1 l 0.9,0.2 0.9,0.4 0.3,0.4 v 0.5 m -3.2,-3.1 -1.7,0.1 -1.2,0.5 m 0,0 -0.7,0.5 -0.5,0.6 -0.3,1.3 m 0,0 0.1,1 0.6,0.9 1.2,0.8 m 0,0 1.3,0.3 1.1,0.1 m 0,0 1.6,-0.1 1.2,-0.3 m 0,0 0.8,-0.5 0.6,-0.7 0.3,-0.7 0.1,-0.7 m 0,0 -0.2,-0.9 -0.4,-0.8 -1.2,-0.9 m 0,0 -1.5,-0.4 -1.2,-0.1 m 3.2,-4.1 -0.1,0.4 -0.2,0.4 -0.9,0.4 -2,0.2 m 0,0 h -0.9 l -1,-0.2 -0.9,-0.4 -0.3,-0.4 -0.1,-0.4 m 3.3,-1.5 h 1 l 0.9,0.2 0.9,0.4 0.3,0.4 v 0.5 m -3.2,-3.1 -1.7,0.1 -1.2,0.5 m 0,0 -0.7,0.5 -0.5,0.6 -0.3,1.3 m 0,0 0.1,1 0.6,0.9 1.2,0.8 m 0,0 1.3,0.3 1.1,0.1 m 0,0 1.6,-0.1 1.2,-0.3 m 0,0 0.8,-0.5 0.6,-0.7 0.3,-0.7 0.1,-0.7 m 0,0 -0.2,-0.9 -0.4,-0.8 -1.2,-0.9 m 0,0 -1.5,-0.4 -1.2,-0.1 m -3.2,3.1 0.1,-0.5 0.3,-0.4 0.9,-0.4 1,-0.2 h 1 m 0.9,-5.5 0.1,-0.5 0.3,-0.5 0.3,-0.3 h 0.5 m 0,0 0.4,0.1 0.4,0.3 0.2,0.4 v 0.3 m 0,0 -0.1,0.6 -0.3,0.5 -0.8,0.4 m 0,0 -0.1,0.1 -0.1,0.2 v 0.3 m 0,0 0.1,0.2 0.1,0.2 0.2,0.2 h 0.3 m 0,0 0.6,-0.2 0.5,-0.5 0.4,-0.5 0.3,-0.8 0.1,-0.8 m 0,0 -0.2,-1.1 -0.5,-0.8 -0.6,-0.5 -0.8,-0.2 m 0,0 -0.6,0.1 -0.6,0.3 -0.6,0.6 m 0,0 -0.5,-0.6 -0.5,-0.5 -1.1,-0.3 m 0,0 -1.3,0.3 -1,0.9 -0.4,0.9 -0.1,1 m 0,0 0.2,1.1 0.6,1 0.7,0.6 0.8,0.2 m 0,0 h 0.3 l 0.3,-0.2 0.1,-0.3 0.1,-0.2 m 0,0 -0.1,-0.4 -0.1,-0.1 -0.1,-0.1 m 0,0 -0.6,-0.2 -0.6,-0.4 -0.3,-0.5 -0.1,-0.5 m 0,0 0.2,-0.7 0.4,-0.5 0.4,-0.2 0.5,-0.1 m 0,0 0.6,0.1 0.6,0.4 0.2,0.4 v 0.5 m 0,0 v 0.4 0.3 m 0,0 v 0.3 l 0.2,0.3 0.2,0.1 h 0.2 m 0,0 0.4,-0.1 0.2,-0.2 0.1,-0.6 m 0,0 v -0.2 m -4.5,-7.3 h 5.4 m -0.5,2.6 0.4,-0.1 0.2,-0.2 0.2,-0.5 m 0,0 0.5,-0.9 0.7,-0.7 0.4,-0.4 0.5,-0.3 0.2,-0.4 m 0,0 -0.1,-0.4 -0.3,-0.2 -0.5,-0.1 m 0,0 h -6.8 m 0,0 -0.8,0.1 -0.2,0.1 -0.1,0.2 -0.1,0.4 m 0,0 0.1,0.4 0.2,0.2 0.6,0.2 m 5.4,0 -0.8,1 -0.2,0.5 -0.1,0.5 m 0,0 v 0.3 l 0.2,0.2 0.2,0.1 h 0.2" /></g><g
       transform="translate(-191.1,1675.2)"
       id="g50"><path
         id="path52"
         style="fill:none;stroke:#000000;stroke-width:0.70899999;stroke-linecap:round;stroke-linejoin:round;stroke-miterlimit:10;stroke-dasharray:none;stroke-opacity:1"
         d="M 0,0 H -17 M 0,0 v -234 m 0,0 H -17 M -17,0 V -234 M 7.2,-57 H 0 m 7.2,-0.7 v 0.2 0.2 0.3 m 0,-0.7 H 0 m 7.2,-4.4 H 0 m 7.2,-1.3 v 0.5 0.4 0.4 m 0,-1.3 H 0 m 7.2,-0.8 v 0.1 0.2 0.2 0.3 m 0,-0.8 H 0 m 7.2,5.6 v 0.1 0.2 0.2 0.4 m 0,-0.9 H 0 m 7.2,1.7 H 0 M 7.2,-60 H 0 m 7.2,-2.1 v 2.1 m 0,0 v 1.4 m 0,-19.6 v 0.5 m 0,-3.5 H 0 m 7.2,-5.9 v 0.4 0.3 0.1 m 0,-6.5 v 0.1 0.4 m 0,0.8 v 0.4 m 0,-9.6 H 0 m 7.2,-0.9 v 0.1 0.2 0.3 0.3 m 0,-0.9 H 0 m 7.2,1.7 H 0 m 7.2,-0.8 v 0.4 0.3 0.1 m 0,0 v 2.4 m 0,-11.9 v 1.2 m 0,0.8 v 0.2 m 0,1.7 v 0.3 m 0,-11 v 0.7 m 0,1 v 0.2 m 0,-16.2 v 0.2 0.5 0.8 0.7 m 0,1.2 v 0.2 m 0,-3.6 H 0 m 7.2,6.7 H 0 m 7.2,-3.1 v 0.1 m 0,4.1 H 0 m 7.2,-1.1 v 0.5 0.4 0.2 m 0,-10.4 H 0 m 7.2,-2.1 v 1.2 0.9 m 0,-2.1 H 0 m 7.2,-3.5 v 0.2 0.4 0.8 1 1.1 m 0,-3.5 H 0 m 7.2,6.9 H 0 m 7.2,-1.3 v 0.6 0.4 0.2 0.1 m 0,65.1 H 0 m 7.2,-0.9 v 0.1 0.2 0.2 0.4 m 0,-0.9 H 0 m 7.2,1.7 H 0 m 7.2,-0.8 v 0.4 0.3 0.1 m 0,-3.3 H 0 m 7.2,0 v 1.6 m 0,-4.8 H 0 m 7.2,0 v 0.1 0.4 0.7 1 1 m 0,-9.8 H 0 m 7.2,-1.3 v 0.5 0.3 0.5 m 0,-1.3 H 0 m 7.2,5.5 H 0 m 7.2,-0.9 v 0.1 0.2 0.2 0.4 m 0,-0.9 H 0 M 7.2,-74 H 0 m 7.2,-0.8 v 0.4 0.3 0.1 m 0,-7.1 v 0.1 0.2 0.3 0.2 m 0,-0.8 H 0 m 7.2,2.8 H 0 M 7.2,-79 v 0.7 m 0,2 H 0 m 7.2,-2 v 0.4 0.5 0.5 0.6 m 0,0 v 0.6 m 0,-10.9 H 0 m 7.2,-4.3 v 0.2 0.4 0.8 1.4 1.5 m 0,-4.3 H 0 m 7.2,8.6 H 0 m 7.2,-4.3 v 1.3 1.2 0.9 0.7 0.2 m 0,-9.8 H 0 m 7.2,-2.5 v 0.8 0.8 0.5 0.4 m 0,-2.5 H 0 m 7.2,-2.5 v 0.4 0.8 0.6 0.7 m 0,-2.5 H 0 m 7.2,5.4 H 0 m 7.2,-0.4 v 0.3 0.1 m 0,-5.7 H 0 m 7.2,0 v 0.1 0.2 m 0,-8 H 0 m 7.2,-2.4 v 0.5 0.6 1.3 m 0,-2.4 H 0 m 7.2,5.1 H 0 m 7.2,-2.7 v 1 0.9 0.8 m 0,-5.7 H 0 m 7.2,0 v 0.1 0.5 m 0,5.5 H 0 m 7.2,-0.4 v 0.3 0.1 m 0,-10.3 H 0 m 7.2,-2.4 v 0.5 0.6 1.3 m 0,-2.4 H 0 m 7.2,5.1 H 0 m 7.2,-2.7 v 1 0.9 0.8 m 0,-5.7 H 0 m 7.2,0 v 0.1 0.5 m 0,5.5 H 0 m 7.2,-0.4 v 0.3 0.1 m 0,-7.3 H 0 m 7.2,-2.9 v 1.1 1 0.6 0.2 m 0,-2.9 H 0 m 7.2,-3.1 v 0.3 0.9 0.9 1 m 0,-3.1 H 0 m 7.2,-4.8 H 0 m 7.2,-0.8 v 0.1 0.1 0.2 0.4 m 0,-0.8 H 0 m 7.2,1.6 H 0 m 7.2,-0.8 v 0.4 0.2 0.2 m 0,2 H 0 m 7.2,-2 v 1 0.5 0.5 m 0,0.6 H 0 m 7.2,-0.6 v 0.3 0.2 0.1" /></g><g
       transform="translate(81.5,1613.7)"
       id="g54"><path
         id="path56"
         style="fill:none;stroke:#000000;stroke-width:0.70899999;stroke-linecap:round;stroke-linejoin:round;stroke-miterlimit:10;stroke-dasharray:none;stroke-opacity:1"
         d="m 0,0 v 1.6 m 0,0 h -2.3 m 0,0 V 0.1 m 0,0 v -0.7 l 0.2,-0.6 0.1,-0.3 0.2,-0.2 0.3,-0.1 0.4,-0.1 m 0,0 0.3,0.1 0.4,0.2 0.3,0.4 m 0,0 0.1,0.7 V 0 m -3.6,1 v 0.6 m 0,0 h -2.7 m 0,0 -0.5,0.1 -0.3,0.2 -0.2,0.2 -0.1,0.4 m 0,0 0.1,0.4 0.3,0.3 0.7,0.1 m 0,0 h 6.6 m 0,0 H 0.8 L 1.2,3 1.3,2.6 1.4,2.3 m 0,0 V -0.6 M 1.1,-2.3 0.7,-2.9 0.1,-3.4 -1,-3.7 m 0,0 -1,0.2 -0.8,0.6 -0.3,0.7 -0.3,0.8 m 0,0 -0.7,-0.9 -0.9,-0.8 -0.8,-0.4 -0.9,-0.3 m 0,0 -0.3,0.1 -0.3,0.2 -0.1,0.3 V -3 m 0,0 0.1,0.5 0.4,0.4 0.6,0.4 m 0,0 1.2,0.7 m 0,0 0.6,0.4 0.6,0.5 0.3,0.5 V 1 m 5,-1.6 -0.1,-0.9 -0.2,-0.8 m 11.7,-59.1 -1,0.2 -0.8,0.4 -0.6,0.8 -0.3,1 -0.1,1.1 m 0,0 0.1,1.2 0.4,0.9 m 0,0 0.4,0.6 0.6,0.4 0.5,0.3 h 0.6 m 0,0 h 0.3 l 0.3,-0.2 0.1,-0.3 v -0.2 m 0,0 v -0.3 l -0.2,-0.3 -0.5,-0.2 m 0,0 -0.6,-0.3 -0.5,-0.5 -0.1,-0.5 -0.1,-0.6 m 0,0 0.1,-0.6 0.2,-0.6 0.4,-0.4 0.3,-0.1 0.3,-0.1 m 0,0 0.3,0.1 0.3,0.1 0.4,0.6 0.4,1.3 m 0,0 0.3,1.2 0.6,1 0.7,0.6 0.9,0.2 m 0,0 1.1,-0.3 0.8,-0.8 0.4,-1.1 0.2,-1.1 m 0,0 -0.2,-1.2 -0.4,-1 -0.7,-0.6 -0.9,-0.3 m 0,0 -0.3,0.1 -0.3,0.2 -0.1,0.2 -0.1,0.3 m 0,0 0.1,0.2 0.1,0.3 0.4,0.2 m 0,0 0.5,0.3 0.4,0.5 0.2,0.9 m 0,0 -0.2,1 -0.3,0.4 -0.2,0.2 h -0.3 m 0,0 -0.3,-0.1 -0.2,-0.1 -0.4,-0.6 -0.3,-1.1 m 0,0 -0.4,-1.3 -0.5,-1.2 -0.8,-0.6 -1,-0.2 m 0,20.9 -1,0.2 -0.8,0.5 -0.6,0.7 -0.3,1 -0.1,1.1 m 0,0 0.1,1.3 0.4,0.9 m 0,0 0.4,0.5 0.6,0.5 0.5,0.2 0.6,0.1 m 0,0 0.3,-0.1 0.3,-0.2 0.1,-0.2 v -0.3 m 0,0 v -0.3 l -0.2,-0.2 -0.5,-0.3 m 0,0 -0.6,-0.3 -0.5,-0.5 -0.1,-0.5 -0.1,-0.5 m 0,0 0.1,-0.7 0.2,-0.5 0.4,-0.5 0.3,-0.1 0.3,-0.1 m 0,0 0.3,0.1 0.3,0.2 0.4,0.5 0.4,1.4 m 0,0 0.3,1.1 0.6,1.1 0.7,0.5 0.9,0.2 m 0,0 1.1,-0.3 0.8,-0.8 0.4,-1 0.2,-1.2 m 0,0 -0.2,-1.1 -0.4,-1.1 -0.7,-0.6 -0.9,-0.3 m 0,0 -0.3,0.1 -0.3,0.2 -0.1,0.2 -0.1,0.3 m 0,0 0.1,0.3 0.1,0.2 0.4,0.3 m 0,0 0.5,0.3 0.4,0.4 0.2,1 m -1,1.5 h -0.3 l -0.2,-0.2 -0.4,-0.5 -0.3,-1.2 m 2.2,0.4 -0.2,1 -0.3,0.4 -0.2,0.1 h -0.3 m -1.2,-1.9 -0.4,-1.3 -0.5,-1.1 -0.8,-0.7 -1,-0.2 m 2.6,21.8 v -3.9 m 3.6,-0.8 -0.1,-0.4 -0.4,-0.3 -0.6,-0.2 m 0,0 H 11 m 0,0 -0.4,0.1 -0.4,0.2 -0.2,0.3 v 0.3 m 0,0 0.1,0.4 0.3,0.3 0.6,0.1 m 0,0 h 2.9 m 0,0 v 3.9 m 0,0 H 11 m 0,0 h -0.4 l -0.4,0.2 -0.2,0.3 v 0.3 m 0,0 0.1,0.4 0.3,0.3 0.6,0.1 m 0,0 h 6.9 m 0,0 h 0.4 l 0.4,-0.2 0.2,-0.3 0.1,-0.3 m 0,0 -0.1,-0.4 -0.4,-0.3 -0.6,-0.1 m -2.5,-3.9 h 2.5 m 0,3.9 h -2.5 m 2.5,-3.9 h 0.4 l 0.4,-0.2 0.2,-0.3 0.1,-0.3 m -1.6,32 v 1.1 m 0,0 h -2.6 m 0,0 V 8.6 m 0,0 V 7.9 L 15,7.3 15.2,7 15.5,6.8 16.1,6.7 m 0,0 0.5,0.1 L 17,7 m 0,0 0.2,0.4 0.1,0.4 0.1,0.8 m -4,-0.5 v 1.6 m 0,0 H 11 m 0,0 -0.4,0.1 -0.4,0.2 -0.2,0.2 v 0.4 m 0,0 0.1,0.4 0.3,0.3 0.6,0.1 m 0,0 h 6.7 m 0,0 0.4,-0.1 0.4,-0.2 0.2,-0.4 V 10.3 M 18.6,6.6 18.2,5.8 17.5,5.2 16.8,5 16.1,4.9 m 0,0 -0.9,0.1 -0.8,0.4 -0.5,0.7 -0.4,1 -0.1,1 m 5.3,0 V 7.3 L 18.6,6.6 m 0.1,3.7 V 8.1 M 10,-49.6 v 1 l 0.3,0.9 0.9,1.2 m 0,0 0.8,0.6 0.9,0.3 1.5,0.2 m 0,0 1.3,-0.1 1.2,-0.5 1,-0.8 0.8,-1.3 0.3,-1.5 m 0,0 -0.2,-1.3 -0.7,-1.2 -0.8,-0.7 -1,-0.3 m 0,0 H 16 l -0.2,0.2 -0.2,0.2 v 0.3 m 0,0 v 0.3 l 0.2,0.3 0.5,0.3 m 0,0 0.6,0.4 0.4,0.5 0.3,1 m 0,0 -0.1,0.9 -0.5,0.6 -0.7,0.5 -0.9,0.3 -1,0.1 m -3.1,-2.3 0.1,-0.8 0.4,-0.6 1,-0.7 m 0,0 0.6,-0.3 0.2,-0.2 v -0.3 m 0,0 -0.1,-0.3 -0.2,-0.3 -0.2,-0.1 -0.3,-0.1 m 1.6,6 -1.2,-0.1 -1.1,-0.5 -0.6,-0.8 -0.2,-0.9 m 1.5,-3.7 -0.9,0.2 -0.8,0.6 -0.6,0.7 -0.4,1 -0.1,1.1 m 7.9,68.3 h -3.1 m 3.6,-3.4 0.4,-0.5 0.1,-0.2 0.1,-0.2 m 0,0 -0.1,-0.4 -0.2,-0.3 -0.2,-0.1 -0.3,-0.1 m 0,0 -0.5,0.2 -0.3,0.2 m 0,0 -2,2.2 m 0,0 -3.5,-2.5 m 0,0 -0.7,-0.4 -0.5,-0.1 m 0,0 -0.4,0.1 -0.2,0.2 -0.1,0.3 v 0.2 m 0,0 v 0.5 l 0.4,0.4 0.6,0.4 m 0,0 3.2,2.1 m 0,0 -1.4,1.4 m 0,0 H 11 m 0,0 -0.4,0.1 -0.4,0.2 -0.2,0.2 v 0.4 m 0,0 v 0.2 l 0.1,0.2 0.3,0.3 m 0,0 0.6,0.1 h 0.4 m 0,0 h 6.5 m 0,0 h 0.4 l 0.4,-0.2 0.2,-0.3 0.1,-0.3 m 0,0 -0.1,-0.4 -0.4,-0.3 -0.6,-0.2 m -3.1,0 3.6,-3.4 M 11,-28.2 h 2.8 m 0,0 3.3,2.1 m 0,0 0.6,0.4 0.5,0.1 m 0,0 h 0.3 l 0.3,-0.3 0.1,-0.2 0.1,-0.3 m 0,0 -0.2,-0.4 -0.3,-0.3 -0.6,-0.4 m 0,0 -2.7,-1.6 m 0,0 2.7,-1.6 m 0,0 0.8,-0.5 0.2,-0.2 0.1,-0.4 m 0,0 -0.1,-0.3 -0.2,-0.3 -0.2,-0.1 -0.3,-0.1 m 0,0 -0.6,0.3 -0.5,0.2 m 0,0 -3.3,2.2 m 0,0 H 11 m 0,0 -0.4,0.1 -0.4,0.2 -0.2,0.2 v 0.4 m 0,0 0.1,0.4 0.3,0.3 0.6,0.1 m -13.9,-8.2 h 1 l 1,0.2 0.8,0.4 0.3,0.4 0.1,0.5 m 0,0 -0.1,0.5 -0.3,0.4 -0.9,0.3 -1.9,0.2 m 0,0 h -1 l -1,-0.1 -0.9,-0.5 -0.3,-0.4 -0.1,-0.4 m 0,0 0.1,-0.5 0.3,-0.4 0.9,-0.4 1,-0.2 h 1 M -3,-38 l -1.7,0.1 -1.2,0.5 m 2.8,5.5 1.6,-0.1 1.2,-0.3 m 0,0 0.8,-0.5 0.6,-0.7 0.3,-0.7 0.1,-0.7 m -8.9,-0.1 0.2,1 0.5,0.9 1.3,0.9 m 5.2,-5.3 -1.6,-0.4 L -3,-38 m -2.9,0.6 -0.7,0.5 -0.5,0.7 -0.3,1.2 m 8.9,0.1 -0.1,-0.9 -0.5,-0.8 -1.1,-0.9 m -5.2,5.3 1.3,0.2 1,0.1 m 0.2,2.7 h 1 l 1,0.2 0.8,0.4 0.3,0.4 0.1,0.5 m 0,0 -0.1,0.5 -0.3,0.4 -0.9,0.3 -1.9,0.2 m 0,0 h -1 l -1,-0.1 -0.9,-0.5 -0.3,-0.4 -0.1,-0.4 m 0,0 0.1,-0.5 0.3,-0.4 0.9,-0.4 1,-0.2 h 1 m -0.1,-1.6 -1.7,0.1 -1.2,0.5 m 0,0 -0.7,0.5 -0.5,0.7 -0.3,1.2 m 0,0 0.2,1 0.5,0.9 1.3,0.9 m 0,0 1.3,0.2 1,0.1 m 0,0 1.6,-0.1 1.2,-0.3 m 0,0 0.8,-0.5 0.6,-0.7 0.3,-0.7 0.1,-0.7 m 0,0 -0.1,-0.9 -0.5,-0.8 -1.1,-0.9 m 0,0 -1.6,-0.4 -1.2,-0.1 m -1,10.7 -1.1,0.1 -0.8,0.2 m 0,0 -0.7,0.5 -0.5,0.7 -0.2,0.7 -0.1,0.7 m 0,0 0.1,0.7 0.2,0.8 0.4,0.5 0.4,0.4 m 0,0 0.9,0.3 0.7,0.1 m 0,0 h 0.4 l 0.3,-0.3 0.2,-0.2 v -0.3 m 0,0 -0.1,-0.4 -0.2,-0.2 -0.5,-0.2 m 0,0 -0.6,-0.2 -0.5,-0.2 -0.3,-0.4 v -0.4 m 0,0 0.1,-0.6 0.2,-0.2 0.2,-0.2 0.6,-0.2 h 0.6 m 0,0 h 4.8 m 0,0 H 1 l 0.3,-0.2 0.2,-0.3 0.1,-0.3 m 0,0 -0.1,-0.5 -0.3,-0.3 -0.7,-0.1 m 0,0 H -4 M 0,8.6 v 1.1 m 0,0 h -2.6 m 0,0 V 8.6 m 0,0 0.1,-0.7 0.2,-0.6 0.2,-0.3 0.2,-0.2 0.6,-0.1 m 0,0 0.6,0.1 0.4,0.2 m 0,0 0.2,0.4 L 0,7.8 V 8.6 M -3.9,8.1 v 1.6 m 0,0 h -2.4 m 0,0 -0.5,0.1 -0.3,0.2 -0.2,0.2 -0.1,0.4 m 0,0 0.1,0.4 0.3,0.3 0.7,0.1 m 0,0 h 6.6 m 0,0 0.5,-0.1 0.4,-0.2 0.1,-0.4 0.1,-0.4 m 0,0 V 8.1 m 0,0 L 1.3,7.3 1.2,6.6 m 0,0 L 0.8,5.8 0.2,5.2 -0.5,5 -1.2,4.9 m 0,0 -0.9,0.1 -0.8,0.4 -0.6,0.7 -0.3,1 -0.1,1 m 1,-19.9 1.3,0.2 1.1,0.6 0.6,0.8 0.2,0.9 m 0,0 -0.2,0.9 -0.4,0.7 -0.7,0.5 -0.9,0.3 -1,0.1 m 0,0 -1.2,-0.2 -1.1,-0.5 -0.6,-0.8 -0.2,-1 m 0,0 0.3,-1.2 0.9,-0.8 0.9,-0.4 1,-0.1 m 4.5,2.5 -0.1,-1.3 -0.6,-1.2 -0.8,-0.9 -1.4,-0.7 -1.6,-0.2 m 0,0 -1.3,0.2 -1.2,0.4 -1,0.8 -0.8,1.4 -0.2,1.5 m 0,0 0.2,1.3 0.5,1.2 0.9,1 1.4,0.6 1.5,0.2 m 0,0 1.3,-0.1 1.2,-0.5 1.1,-0.8 0.7,-1.3 0.2,-1.6 m 15.8,-2.5 v 1.2 m 0,0 h -2.6 m 0,0 v -1.2 m 0,0 v -0.7 l 0.2,-0.6 0.2,-0.2 0.3,-0.2 0.6,-0.2 m 0,0 0.5,0.1 0.4,0.3 m 0,0 0.2,0.3 0.1,0.5 0.1,0.7 m -4,-0.4 v 1.6 m 0,0 H 11 m 0,0 h -0.4 l -0.4,0.2 -0.2,0.3 v 0.3 m 0,0 0.1,0.4 0.3,0.3 0.6,0.1 m 0,0 h 6.7 m 0,0 h 0.4 l 0.4,-0.3 0.2,-0.4 V -10 m 0,0 v -2.2 m -0.1,-1.5 -0.4,-0.9 -0.7,-0.5 -0.7,-0.3 -0.7,-0.1 m 0,0 -0.9,0.1 -0.8,0.4 -0.5,0.7 -0.4,1 -0.1,1.1 m 5.3,0 v -0.9 l -0.1,-0.6 m -19.7,-35.5 -0.7,1.1 -0.3,0.4 -0.1,0.5 m 0,0 0.1,0.3 0.1,0.2 0.2,0.1 h 0.2 m 0,0 h 0.4 l 0.2,-0.3 0.3,-0.5 m 0,0 0.5,-0.9 0.6,-0.7 0.5,-0.4 0.4,-0.3 0.2,-0.4 m 0,0 -0.1,-0.4 -0.3,-0.2 -0.5,-0.1 m 0,0 h -6.8 m 0,0 -0.8,0.1 -0.2,0.1 -0.1,0.2 -0.1,0.4 m 0,0 0.1,0.4 0.3,0.2 0.6,0.2 m 0,0 h 5.3 m -0.9,7.3 0.1,-0.5 0.3,-0.5 0.4,-0.3 h 0.4 m 1.1,1.1 -0.1,0.6 -0.4,0.5 -0.8,0.4 m 0,0 -0.1,0.1 -0.1,0.2 v 0.3 m 0,0 0.1,0.2 0.2,0.3 0.2,0.1 h 0.2 m -0.2,-5.4 -0.6,0.1 -0.5,0.3 -0.7,0.6 m -2.1,-1.4 -1.3,0.3 -0.9,0.9 -0.5,0.9 -0.1,1 m 0,0 0.2,1.1 0.6,1 0.7,0.6 0.8,0.2 m 0,0 h 0.4 l 0.2,-0.2 0.2,-0.3 v -0.2 m -0.3,-0.6 -0.6,-0.2 -0.6,-0.4 -0.3,-0.5 -0.1,-0.5 m 0,0 0.2,-0.6 0.4,-0.6 0.4,-0.2 0.5,-0.1 m 2.1,2.8 0.3,-0.1 0.2,-0.2 0.1,-0.5 m 0,0 v -0.3 m 1.2,-1.3 0.5,0.1 0.3,0.3 0.2,0.4 0.1,0.3 m -4.6,2.2 -0.1,-0.4 -0.1,-0.1 -0.1,-0.1 m 4.1,1.1 0.6,-0.2 0.6,-0.5 0.3,-0.5 0.3,-0.8 0.1,-0.8 m -6.1,-1.4 0.7,0.1 0.5,0.4 0.2,0.4 0.1,0.5 m 4.6,0 -0.2,-1 -0.5,-0.9 -0.6,-0.5 -0.8,-0.2 m -1.8,1 -0.4,-0.6 -0.6,-0.5 -1.1,-0.3 m 1.4,3 v 0.2 l -0.1,0.2 v 0.3 m 0,0 0.1,0.3 0.1,0.3 0.2,0.1 h 0.3 m 21.6,-2.1 -0.1,-0.4 -0.4,-0.3 -0.6,-0.1 m 0,0 H 11 m 0,0 h -0.4 l -0.4,0.2 -0.2,0.3 v 0.3 m 0,0 0.1,0.4 0.3,0.3 0.6,0.2 m 0,0 h 6.9 m 0,0 0.4,-0.1 0.4,-0.2 0.2,-0.2 0.1,-0.4 M 13.7,3.3 h 4.2 m 0,0 h 0.4 L 18.7,3.1 18.9,2.8 19,2.5 m 0,0 L 18.9,2.1 18.5,1.8 17.9,1.6 m 0,0 h -4.3 m 0,0 -1,-0.1 -0.8,-0.4 -0.4,-0.6 -0.1,-0.8 m 0,0 0.1,-0.6 0.2,-0.6 0.5,-0.4 0.7,-0.2 0.7,-0.1 M 19,-3 18.9,-3.5 18.5,-3.8 17.9,-3.9 m 0,0 h -4.2 m 0,0 -0.9,0.1 -0.9,0.1 -0.6,0.3 -0.5,0.4 m 0,0 -0.5,0.7 -0.2,0.7 -0.1,1.2 m 0,0 v 1.1 l 0.4,1.1 0.7,0.9 1.3,0.5 1.3,0.1 m -0.2,-5.5 h 4.4 m 0,0 h 0.4 L 18.7,-2.4 18.9,-2.7 19,-3 m 139.3,-122.2 0.7,0.1 0.6,0.2 0.7,0.3 0.5,0.5 0.4,0.5 0.4,0.7 0.2,0.6 0.1,0.7 m 0,0 v 10.8 m 0,0 -0.1,0.7 -0.2,0.7 -0.4,0.6 -0.4,0.6 -0.5,0.4 -0.7,0.4 -0.6,0.2 h -0.7 m 0,0 h -10.8 m 0,0 h -0.7 l -0.7,-0.2 -0.6,-0.4 -0.6,-0.4 -0.4,-0.6 -0.4,-0.6 -0.2,-0.7 v -0.7 m 0,0 v -10.8 m 0,0 v -0.7 l 0.2,-0.6 0.4,-0.7 0.4,-0.5 0.6,-0.5 0.6,-0.3 0.7,-0.2 0.7,-0.1 m 0,0 h 10.8 m -15.2,167.4 0.1,0.7 0.2,0.7 0.3,0.6 0.5,0.6 0.5,0.4 0.7,0.4 0.6,0.2 h 0.7 m -3.6,-3.6 V 31.4 m 3.6,-3.6 -0.7,0.1 -0.6,0.2 -0.7,0.3 -0.5,0.5 -0.5,0.5 -0.3,0.7 -0.2,0.6 -0.1,0.7 m 3.6,-3.6 h 10.8 m 3.6,3.6 v -0.7 l -0.2,-0.6 -0.4,-0.7 -0.4,-0.5 -0.6,-0.5 -0.6,-0.3 -0.7,-0.2 -0.7,-0.1 m 3.6,3.6 v 10.8 m -3.6,3.6 h 0.7 l 0.7,-0.2 0.6,-0.4 0.6,-0.4 0.4,-0.6 0.4,-0.6 0.2,-0.7 v -0.7 m -3.6,3.6 H 146.7 M 39.1,14.3 h 135.5 m -144,-8.5 0.2,1.5 0.3,1.4 0.7,1.4 0.8,1.2 1.1,1 1.2,0.9 1.3,0.6 1.5,0.4 1.4,0.1 m -8.5,-99.5 v 91 m 8.5,-99.5 -1.4,0.2 -1.5,0.3 -1.3,0.7 -1.2,0.8 -1.1,1.1 -0.8,1.2 -0.7,1.3 -0.3,1.5 -0.2,1.4 m 144,-8.5 H 39.1 m 135.5,-63 v 63 m -216,-63 h 216 m -216,234 v -234 m 216,234 h -216 m 216,-63 v 63 M -12.6,-124.3 h 0.7 l 0.7,-0.2 0.6,-0.4 0.6,-0.4 0.4,-0.6 0.4,-0.6 0.2,-0.7 v -0.7 m -3.6,3.6 h -10.8 m -3.6,-3.6 0.1,0.7 0.2,0.7 0.3,0.6 0.5,0.6 0.5,0.4 0.7,0.4 0.6,0.2 h 0.7 m -3.6,-3.6 v -10.8 m 3.6,-3.6 -0.7,0.1 -0.6,0.2 -0.7,0.3 -0.5,0.5 -0.5,0.5 -0.3,0.7 -0.2,0.6 -0.1,0.7 m 3.6,-3.6 h 10.8 m 3.6,3.6 v -0.7 l -0.2,-0.6 -0.4,-0.7 -0.4,-0.5 -0.6,-0.5 -0.6,-0.3 -0.7,-0.2 -0.7,-0.1 m 3.6,3.6 v 10.8 m 21.6,36 -0.1,2 -0.3,2 -0.5,1.9 -0.8,1.8 -0.9,1.8 -1.2,1.6 -1.3,1.5 -1.4,1.3 -1.6,1.2 -1.7,1 -1.9,0.8 -1.8,0.6 -2,0.4 -2,0.1 h -2 l -1.9,-0.3 -1.9,-0.5 -1.9,-0.7 -1.8,-0.9 -1.6,-1.1 -1.6,-1.2 -1.3,-1.4 -1.3,-1.6 -1,-1.7 -0.8,-1.8 -0.7,-1.9 -0.4,-1.9 -0.2,-2 v -2 l 0.2,-1.9 0.4,-2 0.7,-1.8 0.8,-1.8 1,-1.7 1.3,-1.6 1.3,-1.4 1.6,-1.3 1.6,-1.1 1.8,-0.9 1.9,-0.6 1.9,-0.5 1.9,-0.3 2,-0.1 2,0.2 2,0.4 1.8,0.6 1.9,0.8 1.7,1 1.6,1.1 1.4,1.4 1.3,1.5 1.2,1.6 0.9,1.7 0.8,1.9 0.5,1.9 0.3,2 0.1,1.9 M -12.6,35 -16.2,38.6 M -12.6,35 H 1.8 M 5.4,38.6 1.8,35 m 3.6,3.6 V 53 M 1.8,56.6 5.4,53 m -3.6,3.6 h -14.4 m -3.6,-3.6 3.6,3.6 M -16.2,53 V 38.6" /></g><g
       transform="translate(95.2,1617)"
       id="g58"><path
         id="path60"
         style="fill:#000000;fill-opacity:1;fill-rule:evenodd;stroke:none"
         d="M 0,0 H -0.3 -0.6 -0.9 L -1.2,-0.1 H -1.4 L -1.6,-0.2 H -1.8 L -2,-0.3 -2.2,-0.4 -2.4,-0.5 -2.6,-0.6 -2.8,-0.8 -2.9,-0.9 -3,-1.1 -3.2,-1.3 -3.3,-1.4 -3.4,-1.6 -3.5,-1.8 V -2.1 L -3.6,-2.3 V -2.5 L -3.7,-2.8 V -3 -3.3 -3.5 -3.7 -3.9 -4.1 -4.3 -4.5 -4.7 l 0.1,-0.2 v -0.2 l 0.1,-0.2 v -0.1 l 0.1,-0.2 0.1,-0.1 v -0.1 l 0.1,-0.1 0.1,-0.2 0.1,-0.1 0.1,-0.1 0.1,-0.1 0.1,-0.1 0.1,-0.1 0.1,-0.1 h 0.2 l 0.1,-0.1 0.1,-0.1 h 0.2 L -1.8,-7 h 0.2 l 0.1,-0.1 h 0.2 0.1 0.2 l 0.2,-0.1 h 0.3 0.2 0.3 4.2 0.1 0.1 0.1 l 0.1,0.1 H 4.7 4.8 L 4.9,-7 H 5 v 0.1 h 0.1 v 0.1 h 0.1 v 0.1 0.1 0.1 0.1 h 0.1 v 0.1 l -0.1,0.1 v 0.1 0.1 0.1 H 5.1 v 0.1 H 5 v 0.1 H 4.9 L 4.8,-5.6 H 4.7 L 4.6,-5.5 H 4.5 4.4 4.3 4.2 -0.2 -0.3 -0.5 -0.7 -0.8 L -1,-5.4 h -0.1 -0.1 l -0.2,0.1 h -0.1 l -0.1,0.1 H -1.7 L -1.8,-5.1 -1.9,-5 H -2 v 0.1 l -0.1,0.1 v 0.1 l -0.1,0.1 v 0.1 l -0.1,0.1 v 0.1 0.1 L -2.4,-4 v 0.1 0.2 0.1 0.1 0.2 0.1 0.1 l 0.1,0.2 v 0.1 0.1 l 0.1,0.1 v 0.1 l 0.1,0.1 0.1,0.1 0.1,0.1 0.1,0.1 V -2 h 0.1 l 0.2,0.1 h 0.1 l 0.1,0.1 h 0.1 0.2 l 0.2,0.1 h 0.1 0.2 0.2 0.2 4.3 0.1 0.1 0.1 v 0.1 h 0.1 0.1 0.1 v 0.1 H 4.9 L 5,-1.4 h 0.1 v 0.1 l 0.1,0.1 v 0.1 0.1 0.1 h 0.1 v 0.1 l -0.1,0.1 v 0.1 0.1 0.1 H 5.1 v 0.1 H 5 v 0.1 H 4.9 v 0.1 H 4.8 4.7 L 4.7,0 H 4.6 4.5 4.4 4.3 4.2 Z m -2.7,-45.3 v 0 H -2.8 -2.9 -3 v -0.1 h -0.1 -0.1 -0.1 v -0.1 h -0.1 l -0.1,-0.1 -0.1,-0.1 v -0.1 h -0.1 v -0.1 -0.1 -0.1 -0.1 -0.1 -0.1 -0.1 -0.1 h 0.1 v -0.1 h 0.1 v -0.1 h 0.1 v -0.1 h 0.1 0.1 V -47 h 0.1 0.1 0.1 0.1 0.1 6.9 0.1 0.1 0.1 0.1 l 0.1,0.1 h 0.1 0.1 v 0.1 H 5 v 0.1 h 0.1 v 0.1 h 0.1 v 0.1 0.1 0.1 l 0.1,0.1 v 0.1 L 5.2,-46 v 0.1 0.1 l -0.1,0.1 v 0.1 H 5 l -0.1,0.1 H 4.8 v 0.1 H 4.7 4.6 l -0.1,0.1 H 4.4 4.3 4.2 Z m -13,0.1 v 0.3 0.1 0.1 0.1 l -0.1,0.1 v 0.1 0.1 h -0.1 v 0.1 h -0.1 -0.1 v 0.1 h -0.1 -0.1 -0.1 -0.1 -0.1 l -0.1,-0.1 h -0.1 v -0.1 h -0.1 v -0.1 -0.1 H -17 v -0.1 -0.1 -0.1 -0.1 -0.1 -0.1 l 0.1,-0.1 v -0.1 -0.1 -0.1 -0.1 -0.1 l -0.1,-0.1 v -0.1 -0.1 -0.1 h -0.1 v -0.1 -0.1 l -0.1,-0.1 -0.1,-0.1 -0.1,-0.1 h -0.1 v -0.1 h -0.1 l -0.1,-0.1 h -0.1 -0.1 l -0.1,-0.1 h -0.1 -0.1 -0.1 -0.1 -0.1 -0.1 -0.1 l -0.1,0.1 h -0.1 -0.1 l -0.1,0.1 h -0.1 v 0.1 h -0.1 l -0.1,0.1 -0.1,0.1 -0.1,0.1 v 0.1 l -0.1,0.1 v 0.1 l -0.1,0.1 v 0.1 0.1 0.1 l -0.1,0.1 v 0.1 0.1 l 0.1,0.1 v 0.1 0.1 0.1 l 0.1,0.1 v 0.1 l 0.1,0.1 v 0.1 h 0.1 v 0.1 h 0.1 l 0.1,0.1 0.1,0.1 0.1,0.1 h 0.1 l 0.2,0.1 0.1,0.1 h 0.1 l 0.2,0.1 h 0.1 v 0.1 h 0.1 l 0.1,0.1 v 0.1 h 0.1 v 0.1 0.1 0.1 0.1 0.1 0.1 h -0.1 v 0.1 l -0.1,0.1 -0.1,0.1 -0.1,0.1 h -0.1 -0.1 -0.1 -0.1 -0.1 -0.1 -0.1 -0.1 l -0.1,-0.1 h -0.1 l -0.1,-0.1 -0.2,-0.1 -0.1,-0.1 -0.1,-0.1 -0.2,-0.1 -0.1,-0.1 -0.1,-0.1 -0.1,-0.1 -0.1,-0.2 -0.1,-0.1 -0.1,-0.1 -0.1,-0.2 v -0.1 l -0.1,-0.2 -0.1,-0.2 v -0.2 l -0.1,-0.1 v -0.2 -0.2 -0.2 -0.2 -0.2 -0.1 l 0.1,-0.2 v -0.2 l 0.1,-0.2 v -0.1 l 0.1,-0.2 0.1,-0.2 0.1,-0.2 0.1,-0.1 0.1,-0.2 0.1,-0.1 0.1,-0.1 0.2,-0.2 0.1,-0.1 0.2,-0.1 0.2,-0.1 0.1,-0.1 h 0.2 l 0.2,-0.1 h 0.1 l 0.2,-0.1 h 0.2 0.2 0.1 0.1 l 0.2,0.1 h 0.1 0.1 l 0.1,0.1 h 0.2 l 0.1,0.1 h 0.1 l 0.1,0.1 0.1,0.1 h 0.1 l 0.1,0.1 0.1,0.1 0.1,0.1 0.1,0.1 0.1,0.1 0.1,0.2 v 0.1 l 0.1,0.1 0.1,-0.1 0.1,-0.1 0.1,-0.1 0.1,-0.1 0.1,-0.1 0.1,-0.1 h 0.1 l 0.1,-0.1 h 0.1 v -0.1 h 0.1 l 0.1,-0.1 h 0.1 0.1 0.1 l 0.1,-0.1 h 0.1 0.1 0.1 0.1 0.1 l 0.2,0.1 h 0.1 0.1 l 0.1,0.1 h 0.1 l 0.1,0.1 h 0.1 l 0.1,0.1 0.2,0.1 v 0.1 l 0.1,0.1 0.1,0.1 0.1,0.1 0.1,0.1 0.1,0.2 v 0.1 l 0.1,0.1 0.1,0.2 v 0.2 0.2 l 0.1,0.2 v 0.2 0.2 0.2 0.1 0.2 l -0.1,0.2 v 0.2 l -0.1,0.1 v 0.2 l -0.1,0.2 -0.1,0.2 v 0.1 l -0.1,0.1 -0.1,0.2 -0.1,0.1 -0.1,0.1 -0.1,0.1 -0.1,0.1 -0.1,0.1 h -0.1 l -0.1,0.1 -0.1,0.1 h -0.1 l -0.1,0.1 h -0.1 -0.1 -0.1 -0.1 -0.1 -0.1 v -0.1 h -0.1 l -0.1,-0.1 -0.1,-0.1 v -0.1 h -0.1 v -0.1 -0.1 -0.1 -0.1 -0.1 l 0.1,-0.1 v -0.1 l 0.1,-0.1 0.2,-0.1 0.2,-0.1 h 0.1 v -0.1 h 0.1 0.1 l 0.1,-0.1 0.1,-0.1 0.1,-0.1 0.1,-0.1 v -0.1 l 0.1,-0.1 v -0.1 -0.1 -0.1 l 0.1,-0.1 v -0.1 -0.1 -0.1 l -0.1,-0.1 v -0.1 -0.1 -0.1 l -0.1,-0.1 -0.1,-0.1 -0.1,-0.1 v -0.1 h -0.1 l -0.1,-0.1 h -0.1 v -0.1 h -0.1 -0.1 -0.1 -0.1 -0.1 -0.1 -0.1 -0.1 l -0.1,0.1 h -0.1 v 0.1 h -0.1 -0.1 v 0.1 h -0.1 v 0.1 l -0.1,0.1 v 0.1 l -0.1,0.1 v 0.1 0.1 l -0.1,0.1 v 0.1 0.1 z m -4.4,-7.3 h -0.1 -0.1 -0.1 l -0.1,-0.1 h -0.1 -0.1 v -0.1 h -0.1 -0.1 v -0.1 L -21,-52.9 V -53 l -0.1,-0.1 v -0.1 -0.1 -0.1 -0.1 l 0.1,-0.1 v -0.1 l 0.1,-0.1 v -0.1 h 0.1 0.1 V -54 h 0.1 0.1 l 0.1,-0.1 h 0.1 0.1 0.1 0.1 0.1 6.8 0.1 0.1 0.1 0.1 v 0.1 h 0.1 0.1 v 0.1 h 0.1 v 0.1 h 0.1 v 0.1 l 0.1,0.1 v 0.1 0.1 0.1 0.1 l -0.1,0.1 v 0.1 h -0.1 l -0.1,0.1 -0.2,0.2 -0.2,0.1 -0.2,0.1 -0.2,0.2 -0.1,0.1 -0.2,0.2 -0.1,0.1 -0.2,0.2 -0.1,0.2 -0.1,0.2 -0.1,0.2 -0.1,0.2 -0.1,0.2 -0.1,0.1 v 0.1 l -0.1,0.1 v 0.1 l -0.1,0.1 -0.1,0.1 v 0.1 h -0.1 v 0.1 h -0.1 -0.1 -0.1 -0.1 -0.1 -0.1 -0.1 V -50 h -0.1 v -0.1 h -0.1 v -0.1 l -0.1,-0.1 v -0.1 -0.1 -0.1 -0.1 -0.1 l 0.1,-0.1 0.1,-0.2 v -0.1 l 0.1,-0.1 0.1,-0.1 0.1,-0.2 0.1,-0.2 0.1,-0.2 0.2,-0.2 0.1,-0.1 0.1,-0.2 z m 19.8,37 v -0.3 l 0.1,-0.2 v -0.2 -0.3 -0.2 l 0.1,-0.1 V -17 l 0.1,-0.2 0.1,-0.2 0.1,-0.2 0.1,-0.1 0.1,-0.2 0.1,-0.1 0.1,-0.1 0.1,-0.1 0.1,-0.1 0.2,-0.1 0.1,-0.1 0.2,-0.1 h 0.1 l 0.2,-0.1 h 0.2 0.1 l 0.2,-0.1 h 0.2 0.1 0.2 0.1 l 0.2,0.1 h 0.2 0.1 l 0.2,0.1 h 0.1 l 0.2,0.1 0.1,0.1 h 0.1 l 0.1,0.1 0.1,0.1 0.1,0.1 0.1,0.1 0.1,0.1 0.1,0.1 0.1,0.1 0.1,0.1 v 0.1 l 0.1,0.2 v 0.1 l 0.1,0.2 v 0.1 0.1 0.1 l 0.1,0.1 v 0.1 0.1 0.1 0.2 0.1 0.2 0.1 0.2 2.2 0.1 0.1 0.1 0.1 0.1 H 4.9 v 0.1 0.1 H 4.8 v 0.1 H 4.7 v 0.1 H 4.6 l -0.1,0.1 H 4.4 4.3 4.2 4.1 4 -2.7 -2.8 -2.9 -3 -3.1 -3.2 l -0.1,-0.1 h -0.1 v -0.1 h -0.1 l -0.1,-0.1 v -0.1 h -0.1 v -0.1 -0.1 -0.1 -0.1 -0.1 -0.1 -0.1 l 0.1,-0.1 v -0.1 l 0.1,-0.1 h 0.1 v -0.1 h 0.1 l 0.1,-0.1 h 0.1 0.1 0.1 0.1 0.1 2.4 z m 4,0.4 v -0.1 -0.2 -0.1 -0.2 l -0.1,-0.1 v -0.1 -0.1 -0.1 l -0.1,-0.1 v -0.1 -0.1 l -0.1,-0.1 v -0.1 H 3.3 v -0.1 H 3.2 L 3.1,-16.8 H 3 v -0.1 H 2.9 2.8 2.7 L 2.6,-17 H 2.5 2.4 2.3 2.2 2.1 v 0.1 H 2 1.9 1.8 v 0.1 H 1.7 1.6 v 0.1 l -0.1,0.1 -0.1,0.1 v 0.1 H 1.3 v 0.1 l -0.1,0.1 v 0.1 0.1 0.1 l -0.1,0.1 v 0.1 0.2 0.1 0.1 0.2 1.2 h 2.6 z m -15.8,2.5 v 0.3 0.3 0.2 l -0.1,0.3 -0.1,0.3 v 0.3 l -0.1,0.2 -0.2,0.3 -0.1,0.2 -0.2,0.3 -0.1,0.2 -0.2,0.2 -0.3,0.2 -0.2,0.2 -0.2,0.1 -0.3,0.2 -0.2,0.1 -0.3,0.1 -0.3,0.1 -0.3,0.1 h -0.3 l -0.3,0.1 h -0.4 -0.3 -0.2 -0.3 l -0.3,-0.1 h -0.3 l -0.2,-0.1 h -0.3 l -0.3,-0.1 -0.2,-0.1 -0.3,-0.1 -0.3,-0.2 -0.2,-0.1 -0.2,-0.2 -0.2,-0.2 -0.2,-0.1 -0.1,-0.2 -0.2,-0.2 -0.1,-0.2 -0.1,-0.3 -0.1,-0.2 -0.1,-0.3 -0.1,-0.2 -0.1,-0.3 v -0.3 l -0.1,-0.2 v -0.3 -0.3 -0.3 -0.2 l 0.1,-0.3 v -0.3 l 0.1,-0.2 v -0.3 l 0.1,-0.2 0.1,-0.2 0.1,-0.3 0.2,-0.2 0.1,-0.2 0.2,-0.2 0.2,-0.2 0.2,-0.2 0.2,-0.1 0.2,-0.2 0.3,-0.1 0.3,-0.2 0.3,-0.1 0.3,-0.1 h 0.3 l 0.3,-0.1 h 0.3 l 0.3,-0.1 h 0.3 0.3 l 0.3,0.1 h 0.2 0.3 l 0.3,0.1 h 0.2 l 0.3,0.1 0.2,0.1 0.2,0.1 0.2,0.1 0.3,0.1 0.2,0.2 0.2,0.1 0.1,0.2 0.2,0.2 0.2,0.2 0.1,0.2 0.1,0.2 0.2,0.2 0.1,0.2 0.1,0.3 v 0.3 l 0.1,0.2 0.1,0.3 v 0.3 0.3 z m -4.5,-2.5 h -0.2 L -17,-15 h -0.2 -0.2 -0.2 l -0.2,0.1 H -18 l -0.2,0.1 -0.1,0.1 -0.2,0.1 h -0.1 l -0.2,0.1 -0.1,0.1 -0.1,0.1 -0.1,0.1 -0.1,0.1 -0.1,0.2 -0.1,0.1 -0.1,0.1 -0.1,0.2 v 0.1 l -0.1,0.2 v 0.1 0.2 0.2 0.1 0.2 0.1 0.2 0.1 l 0.1,0.1 v 0.2 l 0.1,0.1 v 0.2 l 0.1,0.1 0.1,0.1 0.1,0.1 0.1,0.2 0.2,0.1 0.1,0.1 0.2,0.1 0.1,0.1 0.2,0.1 h 0.2 l 0.1,0.1 0.3,0.1 h 0.2 0.2 l 0.3,0.1 h 0.2 0.2 0.2 0.3 l 0.2,-0.1 h 0.2 0.2 l 0.2,-0.1 h 0.1 l 0.2,-0.1 h 0.2 l 0.1,-0.1 0.2,-0.1 0.1,-0.1 0.1,-0.1 0.2,-0.1 0.1,-0.1 0.1,-0.1 0.1,-0.1 v -0.2 l 0.1,-0.1 0.1,-0.1 v -0.2 l 0.1,-0.1 v -0.2 -0.1 l 0.1,-0.2 v -0.2 -0.1 l -0.1,-0.2 v -0.2 -0.2 l -0.1,-0.1 v -0.2 l -0.1,-0.1 -0.1,-0.1 -0.1,-0.2 -0.1,-0.1 -0.1,-0.1 -0.1,-0.1 -0.1,-0.1 -0.2,-0.1 -0.1,-0.1 -0.1,-0.1 -0.2,-0.1 H -15 l -0.2,-0.1 h -0.2 l -0.2,-0.1 h -0.2 -0.2 -0.2 l -0.2,-0.1 z m -1,19.9 V 4.6 4.4 4.1 l 0.1,-0.2 V 3.7 3.5 l 0.1,-0.2 0.1,-0.2 V 3 l 0.1,-0.2 0.1,-0.2 0.1,-0.1 0.1,-0.1 0.1,-0.2 0.2,-0.1 0.1,-0.1 0.1,-0.1 h 0.2 l 0.1,-0.1 0.2,-0.1 h 0.1 l 0.2,-0.1 h 0.2 0.1 0.2 0.2 0.1 0.2 0.2 0.1 l 0.2,0.1 h 0.1 l 0.2,0.1 h 0.1 l 0.2,0.1 0.1,0.1 0.1,0.1 h 0.1 l 0.1,0.1 0.1,0.1 0.1,0.1 0.1,0.1 v 0.2 l 0.1,0.1 0.1,0.1 V 3 l 0.1,0.2 v 0.1 l 0.1,0.1 V 3.5 3.6 3.7 3.9 4 l 0.1,0.1 V 4.3 4.4 4.5 4.7 4.8 7 7.1 7.2 7.3 7.4 h -0.1 v 0.1 0.1 0.1 h -0.1 v 0.1 l -0.1,0.1 -0.1,0.1 h -0.1 l -0.1,0.1 h -0.1 -0.1 -0.1 -0.1 -0.1 -6.6 -0.1 -0.1 -0.1 -0.1 -0.1 V 8 h -0.1 -0.1 V 7.9 h -0.1 L -20.9,7.8 -21,7.7 V 7.6 L -21.1,7.5 V 7.4 7.3 7.2 7.1 7 H -21 V 6.9 6.8 h 0.1 V 6.7 h 0.1 V 6.6 h 0.1 l 0.1,-0.1 h 0.1 0.1 l 0.1,-0.1 h 0.1 0.1 0.1 2.4 z m 3.9,0.5 V 5.1 5 4.8 4.7 4.5 4.4 4.3 h -0.1 V 4.2 4.1 4 h -0.1 V 3.9 L -14,3.8 V 3.7 h -0.1 V 3.6 h -0.1 -0.1 V 3.5 h -0.1 -0.1 V 3.4 h -0.1 -0.1 -0.1 -0.1 -0.1 -0.1 -0.1 -0.1 -0.1 v 0.1 h -0.1 -0.1 l -0.1,0.1 -0.1,0.1 -0.1,0.1 -0.1,0.1 V 4 l -0.1,0.1 v 0.1 0.1 h -0.1 V 4.4 4.5 4.7 4.8 5 l -0.1,0.1 v 0.2 1.1 h 2.6 z m 0.5,-28.7 h 0.1 0.1 0.1 0.1 l 0.1,0.1 h 0.1 0.1 v 0.1 h 0.1 l 0.1,0.1 0.1,0.1 v 0.1 h 0.1 v 0.1 0.1 0.1 0.1 0.1 0.1 0.1 h -0.1 v 0.1 l -0.1,0.1 -0.1,0.1 h -0.1 v 0.1 h -0.1 -0.1 l -0.1,0.1 h -0.1 -0.1 -0.1 -0.1 -4.8 -0.1 -0.2 -0.1 -0.1 -0.1 l -0.2,0.1 h -0.1 -0.1 l -0.1,0.1 h -0.1 l -0.1,0.1 h -0.1 v 0.1 l -0.1,0.1 h -0.1 v 0.1 0.1 h -0.1 v 0.1 0.1 0.1 0.1 0.1 0.1 0.1 0.1 0.1 l 0.1,0.1 v 0.1 l 0.1,0.1 0.1,0.1 0.1,0.1 h 0.1 l 0.1,0.1 h 0.1 l 0.2,0.1 h 0.2 0.1 l 0.2,0.1 h 0.1 0.1 l 0.1,0.1 h 0.1 l 0.1,0.1 h 0.1 v 0.1 h 0.1 v 0.1 l 0.1,0.1 v 0.1 0.1 0.1 0.1 0.1 0.1 h -0.1 v 0.1 0.1 h -0.1 v 0.1 h -0.1 v 0.1 h -0.1 l -0.1,0.1 h -0.1 -0.1 -0.1 -0.1 -0.1 -0.1 -0.1 -0.1 -0.1 l -0.1,-0.1 h -0.1 -0.1 -0.1 l -0.1,-0.1 h -0.1 l -0.1,-0.1 h -0.1 l -0.1,-0.1 H -20 l -0.1,-0.1 -0.1,-0.1 -0.1,-0.1 h -0.1 l -0.1,-0.1 -0.1,-0.2 -0.1,-0.1 v -0.1 l -0.1,-0.1 -0.1,-0.1 v -0.2 -0.1 l -0.1,-0.1 v -0.2 -0.1 l -0.1,-0.2 v -0.2 -0.2 -0.1 -0.2 -0.2 -0.1 l 0.1,-0.2 v -0.1 -0.2 l 0.1,-0.1 v -0.2 l 0.1,-0.1 v -0.2 l 0.1,-0.1 0.1,-0.1 0.1,-0.1 0.1,-0.2 0.1,-0.1 0.1,-0.1 h 0.1 l 0.1,-0.1 0.2,-0.1 0.1,-0.1 h 0.1 l 0.2,-0.1 h 0.1 l 0.1,-0.1 h 0.2 0.1 0.1 l 0.2,-0.1 h 0.1 0.2 0.1 0.2 0.1 0.2 z m -3.5,-10.7 h 0.3 0.2 0.2 l 0.3,0.1 h 0.2 0.3 l 0.2,0.1 h 0.2 l 0.2,0.1 h 0.2 l 0.3,0.1 0.2,0.1 h 0.1 l 0.2,0.1 0.1,0.1 0.1,0.1 0.2,0.1 0.1,0.1 0.1,0.1 0.1,0.1 0.1,0.2 0.1,0.1 0.1,0.1 0.1,0.2 0.1,0.1 v 0.2 l 0.1,0.1 v 0.2 0.1 l 0.1,0.2 v 0.1 0.2 0.1 0.2 0.1 0.2 l -0.1,0.2 v 0.1 l -0.1,0.2 v 0.1 l -0.1,0.2 -0.1,0.1 v 0.2 l -0.1,0.1 -0.1,0.1 -0.2,0.2 -0.1,0.1 -0.1,0.1 -0.2,0.1 -0.1,0.1 -0.2,0.1 -0.1,0.1 H -14 l -0.2,0.1 h -0.1 l -0.2,0.1 h -0.2 l -0.1,0.1 h -0.2 -0.2 -0.3 l -0.2,0.1 h -0.3 -0.3 -0.2 -0.3 -0.2 -0.2 -0.2 -0.2 l -0.2,-0.1 h -0.2 -0.2 -0.2 l -0.2,-0.1 h -0.2 l -0.2,-0.1 h -0.1 l -0.2,-0.1 -0.2,-0.1 -0.1,-0.1 -0.2,-0.1 -0.1,-0.1 -0.1,-0.1 -0.2,-0.1 -0.1,-0.1 -0.1,-0.1 -0.1,-0.2 -0.1,-0.1 -0.1,-0.2 -0.1,-0.1 -0.1,-0.2 v -0.1 l -0.1,-0.2 v -0.1 l -0.1,-0.2 v -0.1 -0.2 -0.2 -0.1 -0.1 -0.1 -0.1 l 0.1,-0.1 v -0.2 -0.1 l 0.1,-0.2 v -0.1 l 0.1,-0.1 0.1,-0.2 0.1,-0.1 0.1,-0.1 v -0.1 l 0.1,-0.2 0.2,-0.1 0.1,-0.1 0.1,-0.1 0.1,-0.1 0.2,-0.1 h 0.1 l 0.1,-0.1 0.2,-0.1 h 0.1 l 0.2,-0.1 h 0.2 l 0.1,-0.1 h 0.2 l 0.1,-0.1 h 0.3 0.2 0.2 l 0.3,-0.1 h 0.2 0.3 z m 0.1,1.6 h -0.3 -0.3 -0.3 -0.2 l -0.2,0.1 h -0.2 -0.3 l -0.2,0.1 h -0.1 -0.1 l -0.1,0.1 H -19 l -0.2,0.1 h -0.1 l -0.1,0.1 -0.1,0.1 h -0.1 v 0.1 l -0.1,0.1 v 0.1 l -0.1,0.1 v 0.1 0.1 l -0.1,0.2 v 0.1 0.1 l 0.1,0.1 v 0.1 0.1 0.1 l 0.1,0.1 0.1,0.1 0.1,0.1 0.1,0.1 0.1,0.1 h 0.1 l 0.1,0.1 h 0.1 l 0.1,0.1 h 0.2 l 0.1,0.1 h 0.2 0.2 0.1 l 0.2,0.1 h 0.2 0.2 0.3 0.3 0.3 0.3 0.2 0.3 0.3 0.2 l 0.2,-0.1 h 0.2 l 0.2,-0.1 h 0.2 0.1 l 0.1,-0.1 h 0.1 l 0.1,-0.1 h 0.1 l 0.1,-0.1 h 0.1 l 0.1,-0.1 v -0.1 l 0.1,-0.1 0.1,-0.1 v -0.1 -0.1 -0.1 l 0.1,-0.1 v -0.1 -0.1 l -0.1,-0.1 v -0.1 -0.1 -0.1 l -0.1,-0.1 v -0.1 l -0.1,-0.1 -0.1,-0.1 -0.1,-0.1 H -14 v -0.1 h -0.1 l -0.2,-0.1 h -0.1 l -0.1,-0.1 h -0.1 l -0.3,-0.1 h -0.2 -0.2 l -0.2,-0.1 h -0.3 -0.2 -0.3 z m -0.1,-8.8 h 0.3 0.2 0.2 l 0.3,0.1 h 0.2 0.3 l 0.2,0.1 h 0.2 l 0.2,0.1 h 0.2 l 0.3,0.1 0.2,0.1 h 0.1 l 0.2,0.1 0.1,0.1 0.1,0.1 0.2,0.1 0.1,0.1 0.1,0.1 0.1,0.1 0.1,0.2 0.1,0.1 0.1,0.1 0.1,0.2 0.1,0.1 v 0.2 l 0.1,0.1 v 0.2 0.1 l 0.1,0.2 v 0.1 0.2 0.1 0.2 0.1 0.2 l -0.1,0.2 v 0.1 l -0.1,0.2 v 0.1 l -0.1,0.2 -0.1,0.1 v 0.2 l -0.1,0.1 -0.1,0.1 -0.2,0.2 -0.1,0.1 -0.1,0.1 -0.2,0.1 -0.1,0.1 -0.2,0.1 -0.1,0.1 H -14 l -0.2,0.1 h -0.1 l -0.2,0.1 h -0.2 l -0.1,0.1 h -0.2 -0.2 -0.3 l -0.2,0.1 h -0.3 -0.3 -0.2 -0.3 -0.2 -0.2 -0.2 -0.2 l -0.2,-0.1 h -0.2 -0.2 -0.2 l -0.2,-0.1 h -0.2 l -0.2,-0.1 h -0.1 l -0.2,-0.1 -0.2,-0.1 -0.1,-0.1 -0.2,-0.1 -0.1,-0.1 -0.1,-0.1 -0.2,-0.1 -0.1,-0.1 -0.1,-0.1 -0.1,-0.2 -0.1,-0.1 -0.1,-0.2 -0.1,-0.1 -0.1,-0.2 v -0.1 l -0.1,-0.2 v -0.1 l -0.1,-0.2 v -0.1 -0.2 -0.2 -0.1 -0.1 -0.1 -0.1 l 0.1,-0.1 v -0.2 -0.1 l 0.1,-0.2 v -0.1 l 0.1,-0.1 0.1,-0.2 0.1,-0.1 0.1,-0.1 V -40 l 0.1,-0.2 0.2,-0.1 0.1,-0.1 0.1,-0.1 0.1,-0.1 0.2,-0.1 h 0.1 l 0.1,-0.1 0.2,-0.1 h 0.1 L -19,-41 h 0.2 l 0.1,-0.1 h 0.2 l 0.1,-0.1 h 0.3 0.2 0.2 l 0.3,-0.1 h 0.2 0.3 z m 0.1,1.6 h -0.3 -0.3 -0.3 -0.2 l -0.2,0.1 h -0.2 -0.3 l -0.2,0.1 h -0.1 -0.1 l -0.1,0.1 H -19 l -0.2,0.1 h -0.1 l -0.1,0.1 -0.1,0.1 h -0.1 v 0.1 l -0.1,0.1 v 0.1 l -0.1,0.1 v 0.1 0.1 l -0.1,0.2 v 0.1 0.1 l 0.1,0.1 v 0.1 0.1 0.1 l 0.1,0.1 0.1,0.1 0.1,0.1 0.1,0.1 0.1,0.1 h 0.1 l 0.1,0.1 h 0.1 l 0.1,0.1 h 0.2 l 0.1,0.1 h 0.2 0.2 0.1 l 0.2,0.1 h 0.2 0.2 0.3 0.3 0.3 0.3 0.2 0.3 0.3 0.2 l 0.2,-0.1 h 0.2 l 0.2,-0.1 h 0.2 0.1 l 0.1,-0.1 h 0.1 l 0.1,-0.1 h 0.1 l 0.1,-0.1 h 0.1 l 0.1,-0.1 v -0.1 l 0.1,-0.1 0.1,-0.1 v -0.1 -0.1 -0.1 l 0.1,-0.1 v -0.1 -0.1 l -0.1,-0.1 v -0.1 -0.1 -0.1 l -0.1,-0.1 v -0.1 l -0.1,-0.1 -0.1,-0.1 -0.1,-0.1 H -14 v -0.1 h -0.1 l -0.2,-0.1 h -0.1 l -0.1,-0.1 h -0.1 l -0.3,-0.1 h -0.2 -0.2 l -0.2,-0.1 h -0.3 -0.2 -0.3 z m 13.9,8.2 v 0 H -2.8 -2.9 -3 -3.1 -3.2 v -0.1 h -0.1 -0.1 v -0.1 h -0.1 v -0.1 h -0.1 v -0.1 L -3.7,-32 v -0.1 -0.1 -0.1 -0.1 -0.1 -0.1 -0.1 h 0.1 v -0.1 -0.1 h 0.1 l 0.1,-0.1 h 0.1 v -0.1 h 0.1 0.1 0.1 l 0.1,-0.1 h 0.1 0.1 2.8 l 3.3,-2.2 h 0.1 l 0.2,-0.1 0.1,-0.1 h 0.1 v -0.1 H 4 4.1 v -0.1 h 0.1 0.1 0.1 0.1 v -0.1 l 0.1,0.1 h 0.1 0.1 l 0.1,0.1 H 5 v 0.1 h 0.1 v 0.1 h 0.1 v 0.1 0.1 0.1 l 0.1,0.1 V -35 H 5.2 v 0.1 0.1 0.1 l -0.1,0.1 v 0.1 H 5 l -0.1,0.1 -0.1,0.1 H 4.7 l -0.1,0.1 -0.1,0.1 H 4.4 l -0.2,0.1 -2.7,1.6 2.7,1.6 0.2,0.1 0.1,0.1 0.2,0.1 0.1,0.1 h 0.1 v 0.1 H 5 v 0.1 h 0.1 v 0.1 l 0.1,0.1 v 0.1 0.1 l 0.1,0.1 v 0.1 H 5.2 v 0.1 0.1 0.1 0.1 H 5.1 v 0.1 H 5 V -29 H 4.9 l -0.1,0.1 H 4.7 4.6 4.5 4.4 4.3 4.2 L 4.1,-29 H 4 L 3.9,-29.1 H 3.7 l -0.1,-0.1 -0.1,-0.1 -0.1,-0.1 -3.3,-2.1 z m 6.9,46.9 h 0.1 0.1 0.1 v 0.1 h 0.1 0.1 0.1 v 0.1 H 4.9 L 5,15.7 h 0.1 v 0.1 l 0.1,0.1 v 0.1 0.1 0.1 h 0.1 v 0.1 l -0.1,0.1 v 0.1 0.1 0.1 H 5.1 v 0.1 H 5 v 0.1 H 4.9 V 17 H 4.8 4.7 v 0.1 H 4.6 4.5 4.4 4.3 4.2 -2.3 -2.4 -2.5 -2.6 -2.7 -2.8 -2.9 -3 -3.1 -3.2 V 17 H -3.3 -3.4 V 16.9 H -3.5 V 16.8 H -3.6 V 16.7 L -3.7,16.6 V 16.5 16.4 16.3 16.2 16.1 16 15.9 l 0.1,-0.1 v -0.1 h 0.1 l 0.1,-0.1 h 0.1 v -0.1 h 0.1 0.1 0.1 l 0.1,-0.1 h 0.1 0.1 1.8 L 0.5,14 -2.7,11.9 -3,11.7 H -3.1 L -3.2,11.6 -3.3,11.5 -3.4,11.4 H -3.5 V 11.3 H -3.6 V 11.2 L -3.7,11.1 V 11 10.9 10.8 10.7 10.6 10.5 10.4 10.3 10.2 L -3.6,10.1 -3.5,10 V 9.9 h 0.1 l 0.1,-0.1 h 0.1 0.1 0.1 0.1 0.1 0.1 l 0.1,0.1 h 0.1 l 0.1,0.1 h 0.1 0.1 l 0.1,0.1 0.1,0.1 h 0.1 l 0.1,0.1 3.5,2.5 2,-2.2 H 3.8 V 10.5 H 3.9 V 10.4 H 4 4.1 v -0.1 h 0.1 0.1 v -0.1 h 0.1 0.1 0.1 0.1 v 0.1 h 0.1 0.1 v 0.1 H 5 v 0.1 h 0.1 v 0.1 h 0.1 v 0.1 0.1 0.1 L 5.3,11 v 0.1 0.1 H 5.2 v 0.1 0.1 0.1 H 5.1 v 0.1 L 5,11.7 4.9,11.8 4.8,11.9 4.7,12 1.1,15.4 Z m -5.1,-71.9 h 0.1 0.1 v 0.1 h 0.1 0.1 l 0.1,0.1 h 0.1 v 0.1 h 0.1 v 0.1 0.1 h 0.1 v 0.1 0.1 0.1 0.1 0.1 0.1 h -0.1 v 0.1 0.1 h -0.1 l -0.1,0.1 h -0.1 v 0.1 h -0.1 -0.1 v 0.1 h -0.1 -0.1 l -0.1,0.1 h -0.1 l -0.2,0.1 h -0.1 l -0.1,0.1 -0.1,0.1 h -0.1 v 0.1 l -0.1,0.1 -0.1,0.1 H -2 v 0.1 l -0.1,0.1 -0.1,0.1 v 0.1 0.1 l -0.1,0.2 v 0.1 0.1 l -0.1,0.1 v 0.1 0.2 0.1 0.1 0.2 0.1 l 0.1,0.1 v 0.2 0.1 l 0.1,0.2 0.1,0.1 0.1,0.1 v 0.1 l 0.1,0.2 0.2,0.1 0.1,0.1 0.1,0.1 0.2,0.1 0.1,0.1 H -1 l 0.2,0.1 h 0.1 l 0.3,0.1 h 0.2 l 0.2,0.1 h 0.2 0.3 0.2 0.2 0.2 0.2 l 0.3,-0.1 h 0.1 0.2 l 0.2,-0.1 h 0.2 l 0.1,-0.1 0.2,-0.1 h 0.2 l 0.1,-0.1 0.1,-0.1 0.1,-0.1 0.2,-0.1 0.1,-0.1 0.1,-0.2 0.1,-0.1 0.1,-0.1 V -52 l 0.1,-0.1 v -0.1 l 0.1,-0.2 v -0.2 -0.1 -0.2 -0.1 -0.1 -0.1 -0.2 l -0.1,-0.1 v -0.1 -0.1 L 3.7,-53.8 3.6,-53.9 V -54 L 3.5,-54.1 3.4,-54.2 3.3,-54.3 3.2,-54.4 3.1,-54.5 3,-54.6 H 2.9 L 2.8,-54.7 2.7,-54.8 H 2.6 L 2.5,-54.9 H 2.4 V -55 H 2.3 L 2.2,-55.1 H 2.1 v -0.1 H 2 v -0.1 H 1.9 v -0.1 -0.1 -0.1 -0.1 -0.1 -0.1 -0.1 l 0.1,-0.1 0.1,-0.1 v -0.1 h 0.1 l 0.1,-0.1 h 0.1 0.1 0.1 0.2 0.1 0.2 l 0.1,0.1 h 0.2 l 0.1,0.1 0.2,0.1 0.2,0.1 0.1,0.2 0.2,0.1 0.1,0.1 0.1,0.2 0.1,0.2 0.2,0.1 0.1,0.2 v 0.2 l 0.1,0.2 0.1,0.1 0.1,0.2 v 0.3 l 0.1,0.2 v 0.2 0.2 l 0.1,0.2 v 0.2 l -0.1,0.3 v 0.3 0.2 l -0.1,0.3 v 0.3 l -0.1,0.2 -0.2,0.3 -0.1,0.2 -0.1,0.3 -0.2,0.2 -0.2,0.2 -0.2,0.2 -0.2,0.2 -0.2,0.2 -0.3,0.1 -0.2,0.2 -0.3,0.1 -0.3,0.1 -0.2,0.1 -0.4,0.1 H 1.6 l -0.3,0.1 H 1 0.7 0.5 0.3 0.1 l -0.3,-0.1 H -0.4 -0.6 L -0.8,-48.9 -1,-49 h -0.2 l -0.2,-0.1 -0.2,-0.1 -0.2,-0.1 -0.1,-0.1 -0.2,-0.1 -0.1,-0.1 -0.2,-0.1 -0.1,-0.1 -0.1,-0.1 -0.2,-0.1 -0.1,-0.1 -0.1,-0.2 -0.1,-0.1 -0.1,-0.2 -0.1,-0.1 v -0.2 l -0.1,-0.1 -0.1,-0.2 -0.1,-0.2 v -0.2 l -0.1,-0.2 v -0.2 -0.3 -0.2 -0.2 -0.2 -0.3 -0.2 -0.2 l 0.1,-0.3 v -0.2 l 0.1,-0.2 v -0.2 l 0.1,-0.2 0.1,-0.1 0.1,-0.2 0.1,-0.2 0.2,-0.2 0.1,-0.1 0.1,-0.2 0.2,-0.1 0.2,-0.1 0.1,-0.1 0.2,-0.1 0.1,-0.1 0.2,-0.1 h 0.1 l 0.2,-0.1 h 0.2 l 0.1,-0.1 z M -0.3,4.8 V 4.6 L -0.2,4.4 V 4.1 3.9 3.7 L -0.1,3.5 V 3.3 L 0,3.1 0.1,3 0.2,2.8 0.3,2.6 0.4,2.5 0.5,2.4 0.6,2.2 0.7,2.1 0.8,2 1,1.9 H 1.1 L 1.3,1.8 1.4,1.7 H 1.6 L 1.8,1.6 H 1.9 2.1 2.3 2.4 2.6 2.7 2.9 3.1 L 3.2,1.7 H 3.4 L 3.5,1.8 H 3.7 L 3.8,1.9 3.9,2 4,2.1 H 4.1 L 4.2,2.2 4.3,2.3 4.4,2.4 4.5,2.5 4.6,2.7 4.7,2.8 V 2.9 L 4.8,3 V 3.2 L 4.9,3.3 V 3.4 3.5 3.6 L 5,3.7 V 3.9 4 4.1 4.3 4.4 4.5 4.7 4.8 7 7.1 7.2 7.3 7.4 7.5 L 4.9,7.6 V 7.7 L 4.8,7.8 V 7.9 H 4.7 V 8 H 4.6 4.5 L 4.4,8.1 H 4.3 4.2 4.1 4 -2.7 -2.8 -2.9 -3 -3.1 L -3.2,8 H -3.3 L -3.4,7.9 H -3.5 V 7.8 H -3.6 V 7.7 L -3.7,7.6 V 7.5 7.4 7.3 7.2 7.1 7 6.9 h 0.1 V 6.8 l 0.1,-0.1 0.1,-0.1 h 0.1 V 6.5 h 0.1 0.1 0.1 V 6.4 h 0.1 0.1 0.1 2.4 z m 4,0.5 V 5.1 5 4.8 4.7 L 3.6,4.5 V 4.4 4.3 L 3.5,4.2 V 4.1 4 L 3.4,3.9 V 3.8 H 3.3 V 3.7 L 3.2,3.6 H 3.1 L 3,3.5 H 2.9 L 2.8,3.4 H 2.7 2.6 2.5 2.4 2.3 2.2 2.1 2 L 1.9,3.5 H 1.8 L 1.7,3.6 H 1.6 V 3.7 H 1.5 V 3.8 H 1.4 V 3.9 L 1.3,4 V 4.1 L 1.2,4.2 V 4.3 4.4 L 1.1,4.5 V 4.7 4.8 5 5.1 5.3 6.4 H 3.7 Z M 4.2,-22 h 0.1 0.1 0.1 0.1 0.1 v 0.1 h 0.1 0.1 v 0.1 H 5 l 0.1,0.1 v 0.1 h 0.1 v 0.1 0.1 0.1 l 0.1,0.1 v 0.1 H 5.2 v 0.1 0.1 0.1 l -0.1,0.1 -0.1,0.1 -0.1,0.1 H 4.8 l -0.1,0.1 H 4.6 4.5 4.4 4.3 4.2 -2.7 -2.8 -2.9 -3 -3.1 -3.2 l -0.1,-0.1 h -0.1 l -0.1,-0.1 -0.1,-0.1 v -0.1 h -0.1 v -0.1 -0.1 -0.1 -0.1 -0.1 -0.1 -0.1 -0.1 h 0.1 v -0.1 l 0.1,-0.1 h 0.1 v -0.1 h 0.1 l 0.1,-0.1 h 0.1 0.1 0.1 0.1 0.1 2.9 v -3.9 H -2.7 -2.8 -2.9 -3 -3.1 -3.2 L -3.3,-26 h -0.1 v -0.1 h -0.1 v -0.1 h -0.1 v -0.1 h -0.1 v -0.1 -0.1 -0.1 -0.1 -0.1 -0.1 -0.1 -0.1 h 0.1 v -0.1 l 0.1,-0.1 h 0.1 v -0.1 h 0.1 v -0.1 h 0.1 0.1 0.1 0.1 0.1 0.1 v -0.1 h 6.9 l 0.1,0.1 h 0.1 0.1 0.1 0.1 l 0.1,0.1 h 0.1 l 0.1,0.1 0.1,0.1 0.1,0.1 v 0.1 0.1 0.1 h 0.1 v 0.1 0.1 H 5.2 v 0.1 0.1 0.1 H 5.1 v 0.1 L 5,-26.1 H 4.9 V -26 H 4.8 l -0.1,0.1 H 4.6 4.5 4.4 4.3 4.2 1.7 v 3.9 z m -5.1,-21.8 0.1,0.1 h 0.2 0.2 0.2 l 0.2,0.1 0.1,0.1 h 0.1 l 0.2,0.1 0.1,0.1 0.1,0.1 0.2,0.1 0.1,0.2 0.1,0.1 0.1,0.2 0.1,0.2 v 0.1 l 0.1,0.2 0.1,0.2 0.1,0.3 0.1,0.2 0.1,0.3 v 0.3 l 0.1,0.3 0.1,0.2 v 0.3 l 0.1,0.1 v 0.2 0.1 l 0.1,0.1 v 0.2 l 0.1,0.1 v 0.1 h 0.1 v 0.1 l 0.1,0.1 0.1,0.1 0.1,0.1 h 0.1 v 0.1 H 2.8 2.9 3 3.1 3.2 3.3 v -0.1 h 0.1 0.1 v -0.1 l 0.1,-0.1 H 3.7 V -39 l 0.1,-0.1 v -0.1 l 0.1,-0.1 v -0.1 -0.1 L 4,-39.6 v -0.1 -0.1 -0.1 -0.1 -0.1 -0.2 -0.1 -0.2 -0.1 l -0.1,-0.1 v -0.1 -0.1 l -0.1,-0.1 v -0.1 L 3.7,-41.3 3.6,-41.4 H 3.5 v -0.1 L 3.4,-41.6 H 3.3 L 3.2,-41.7 H 3.1 L 3,-41.8 H 2.9 L 2.8,-41.9 H 2.7 V -42 H 2.6 v -0.1 H 2.5 v -0.1 H 2.4 v -0.1 -0.1 l -0.1,-0.1 v -0.1 -0.1 l 0.1,-0.1 v -0.1 -0.1 h 0.1 v -0.1 l 0.1,-0.1 h 0.1 v -0.1 h 0.1 0.1 v -0.1 H 3 3.1 3.3 3.4 l 0.1,0.1 h 0.1 0.1 l 0.1,0.1 h 0.1 l 0.1,0.1 0.2,0.1 0.1,0.1 0.1,0.1 0.1,0.1 0.1,0.1 0.1,0.1 0.1,0.2 v 0.1 l 0.1,0.2 0.1,0.1 v 0.2 l 0.1,0.1 v 0.2 l 0.1,0.2 v 0.2 0.2 0.2 l 0.1,0.1 v 0.2 L 5.2,-40 v 0.2 0.3 0.2 l -0.1,0.2 v 0.2 l -0.1,0.2 -0.1,0.2 -0.1,0.2 -0.1,0.2 -0.1,0.2 -0.1,0.1 -0.1,0.1 -0.1,0.1 -0.1,0.1 -0.1,0.1 -0.2,0.1 -0.1,0.1 -0.2,0.1 H 3.5 L 3.3,-37 H 3.2 3 2.8 2.7 2.6 2.4 L 2.3,-37.1 H 2.2 2 L 1.9,-37.2 1.8,-37.3 H 1.6 L 1.5,-37.4 1.4,-37.5 1.3,-37.6 1.2,-37.7 1.1,-37.9 1,-38 0.9,-38.2 0.8,-38.3 0.7,-38.5 v -0.2 l -0.1,-0.2 -0.1,-0.3 -0.1,-0.2 -0.1,-0.3 v -0.2 l -0.1,-0.2 v -0.2 l -0.1,-0.2 v -0.2 -0.1 L 0,-40.9 v -0.1 -0.2 l -0.1,-0.1 v -0.1 l -0.1,-0.1 -0.1,-0.1 v -0.1 l -0.1,-0.1 h -0.1 v -0.1 H -0.6 L -0.7,-42 H -0.8 -0.9 L -1,-42.1 h -0.1 -0.1 -0.1 l -0.1,0.1 h -0.1 -0.1 v 0.1 h -0.1 l -0.1,0.1 -0.1,0.1 -0.1,0.1 -0.1,0.1 v 0.1 h -0.1 v 0.1 0.1 l -0.1,0.1 v 0.1 0.1 0.1 l -0.1,0.1 v 0.2 0.1 0.2 0.1 0.1 0.1 0.1 l 0.1,0.1 v 0.1 0.1 l 0.1,0.1 v 0.1 0.1 l 0.1,0.1 0.1,0.1 v 0.1 h 0.1 l 0.1,0.1 v 0.1 h 0.1 l 0.1,0.1 h 0.1 l 0.1,0.1 h 0.1 l 0.1,0.1 h 0.1 0.1 v 0.1 h 0.1 0.1 v 0.1 h 0.1 l 0.1,0.1 0.1,0.1 v 0.1 h 0.1 v 0.1 0.1 0.1 0.1 0.1 0.1 l -0.1,0.1 v 0.1 h -0.1 v 0.1 h -0.1 v 0.1 H -0.8 -0.9 -1 v 0.1 h -0.1 -0.2 l -0.1,-0.1 H -1.5 -1.6 -1.8 L -1.9,-37 H -2 l -0.1,-0.1 h -0.1 l -0.2,-0.1 -0.1,-0.1 -0.1,-0.1 -0.1,-0.1 -0.1,-0.1 -0.1,-0.1 -0.1,-0.1 -0.1,-0.1 -0.1,-0.1 v -0.1 l -0.1,-0.1 -0.1,-0.1 v -0.2 l -0.1,-0.1 v -0.1 -0.1 l -0.1,-0.1 v -0.1 -0.2 l -0.1,-0.1 v -0.2 -0.1 -0.2 -0.2 -0.1 -0.2 -0.2 -0.3 -0.2 -0.2 l 0.1,-0.2 v -0.2 l 0.1,-0.2 0.1,-0.2 0.1,-0.2 v -0.2 l 0.2,-0.2 0.1,-0.1 0.1,-0.2 0.2,-0.2 0.1,-0.1 0.2,-0.1 0.1,-0.1 0.2,-0.1 0.1,-0.1 h 0.2 l 0.2,-0.1 h 0.1 0.2 0.2 z m 0,-20.9 h 0.1 0.2 l 0.2,0.1 h 0.2 l 0.2,0.1 h 0.1 l 0.1,0.1 0.2,0.1 0.1,0.1 0.1,0.1 0.2,0.1 0.1,0.1 0.1,0.2 0.1,0.2 0.1,0.1 v 0.2 l 0.1,0.2 0.1,0.2 0.1,0.2 0.1,0.3 0.1,0.3 v 0.3 l 0.1,0.3 0.1,0.2 v 0.3 l 0.1,0.1 v 0.1 0.2 l 0.1,0.1 v 0.1 l 0.1,0.1 v 0.1 l 0.1,0.1 v 0.1 l 0.1,0.1 0.1,0.1 0.1,0.1 h 0.1 l 0.1,0.1 H 2.9 3 3.1 3.2 l 0.1,-0.1 h 0.1 l 0.1,-0.1 0.1,-0.1 0.1,-0.1 0.1,-0.1 v -0.1 -0.1 h 0.1 v -0.1 -0.1 L 4,-60.5 v -0.1 -0.1 -0.1 -0.2 -0.1 -0.1 -0.2 -0.1 -0.1 -0.1 l -0.1,-0.1 v -0.1 L 3.8,-62 v -0.1 l -0.1,-0.1 v -0.1 H 3.6 L 3.5,-62.4 3.4,-62.5 H 3.3 L 3.2,-62.6 3.1,-62.7 H 3 L 2.9,-62.8 H 2.8 L 2.7,-62.9 H 2.6 V -63 H 2.5 v -0.1 H 2.4 v -0.1 -0.1 -0.1 H 2.3 v -0.1 -0.1 l 0.1,-0.1 v -0.1 -0.1 l 0.1,-0.1 0.1,-0.1 0.1,-0.1 h 0.1 l 0.1,-0.1 H 3 3.1 3.3 3.4 3.5 l 0.1,0.1 h 0.1 l 0.1,0.1 h 0.1 l 0.1,0.1 0.2,0.1 0.1,0.1 0.1,0.1 0.1,0.1 0.1,0.1 0.1,0.1 0.1,0.1 v 0.2 l 0.1,0.1 0.1,0.2 v 0.2 l 0.1,0.1 v 0.2 l 0.1,0.2 v 0.2 0.1 0.2 l 0.1,0.2 v 0.2 L 5.2,-61 v 0.3 0.3 0.2 L 5.1,-60 v 0.2 l -0.1,0.2 -0.1,0.2 -0.1,0.2 -0.1,0.2 -0.1,0.1 -0.1,0.2 -0.1,0.1 -0.1,0.1 -0.1,0.1 -0.1,0.1 -0.2,0.1 -0.1,0.1 H 3.6 L 3.5,-58 H 3.3 l -0.1,0.1 H 3 2.8 2.7 2.6 L 2.4,-58 H 2.3 2.2 L 2,-58.1 H 1.9 L 1.8,-58.2 1.6,-58.3 1.5,-58.4 1.4,-58.5 1.3,-58.6 1.2,-58.7 1.1,-58.8 1,-59 0.9,-59.1 0.8,-59.3 0.7,-59.4 v -0.2 l -0.1,-0.2 -0.1,-0.3 -0.1,-0.2 -0.1,-0.3 v -0.3 l -0.1,-0.2 v -0.2 l -0.1,-0.2 v -0.1 -0.1 L 0,-61.8 v -0.2 -0.1 l -0.1,-0.1 v -0.1 l -0.1,-0.1 v -0.1 h -0.1 v -0.1 l -0.1,-0.1 -0.1,-0.1 -0.1,-0.1 H -0.7 -0.8 L -0.9,-63 H -1 -1.1 -1.2 -1.3 -1.4 v 0.1 h -0.1 -0.1 l -0.1,0.1 h -0.1 v 0.1 l -0.1,0.1 H -2 v 0.1 l -0.1,0.1 -0.1,0.1 v 0.1 0.1 l -0.1,0.1 v 0.1 0.2 l -0.1,0.1 v 0.2 0.1 0.1 0.1 0.2 0.1 0.1 l 0.1,0.1 v 0.1 0.1 l 0.1,0.1 v 0.1 0.1 l 0.1,0.1 H -2 v 0.1 l 0.1,0.1 0.1,0.1 0.1,0.1 0.1,0.1 h 0.1 l 0.1,0.1 h 0.1 l 0.1,0.1 h 0.1 0.1 l 0.1,0.1 h 0.1 l 0.1,0.1 h 0.1 v 0.1 h 0.1 v 0.1 l 0.1,0.1 v 0.1 0.1 0.1 0.1 0.1 0.1 h -0.1 v 0.1 0.1 h -0.1 l -0.1,0.1 -0.1,0.1 H -0.9 -1 -1.1 -1.3 -1.4 -1.5 -1.6 l -0.2,-0.1 H -1.9 L -2,-58 h -0.1 l -0.1,-0.1 -0.2,-0.1 h -0.1 l -0.1,-0.1 -0.1,-0.1 -0.1,-0.1 -0.1,-0.1 -0.1,-0.1 -0.1,-0.1 -0.1,-0.1 v -0.2 l -0.1,-0.1 -0.1,-0.1 v -0.1 l -0.1,-0.1 v -0.1 -0.1 l -0.1,-0.1 v -0.2 -0.1 l -0.1,-0.2 v -0.1 -0.2 -0.1 -0.2 -0.1 -0.2 -0.2 -0.3 -0.2 -0.3 l 0.1,-0.2 v -0.2 l 0.1,-0.2 0.1,-0.2 0.1,-0.1 v -0.2 l 0.2,-0.2 0.1,-0.2 0.1,-0.1 0.2,-0.2 0.1,-0.1 0.2,-0.1 0.1,-0.1 0.2,-0.1 0.1,-0.1 h 0.2 l 0.2,-0.1 h 0.1 l 0.2,-0.1 h 0.2 z M -17.3,-2.3 V -2.4 -2.5 -2.7 -2.8 -2.9 L -17.4,-3 v -0.1 -0.1 l -0.1,-0.1 -0.1,-0.1 -0.1,-0.1 -0.1,-0.1 -0.1,-0.1 -0.1,-0.1 -0.1,-0.1 -0.2,-0.1 -0.2,-0.1 -0.1,-0.1 -0.2,-0.1 -1.2,-0.7 -0.1,-0.1 -0.1,-0.1 h -0.1 l -0.1,-0.1 -0.1,-0.1 h -0.1 l -0.1,-0.1 -0.1,-0.1 -0.1,-0.1 -0.1,-0.1 V -5.9 -6 h -0.1 v -0.1 -0.1 -0.1 -0.1 -0.1 -0.1 h 0.1 v -0.1 -0.1 h 0.1 v -0.1 h 0.1 V -7 h 0.1 l 0.1,-0.1 h 0.1 0.1 0.1 0.1 l 0.1,0.1 h 0.2 0.1 l 0.1,0.1 h 0.1 l 0.2,0.2 0.2,0.1 0.3,0.1 0.2,0.1 0.2,0.2 0.2,0.1 0.2,0.2 0.2,0.2 0.1,0.1 0.2,0.1 0.1,0.2 0.1,0.1 0.1,0.1 0.1,0.2 0.1,0.2 0.1,-0.2 v -0.2 l 0.1,-0.1 v -0.2 l 0.1,-0.1 v -0.2 l 0.1,-0.1 0.1,-0.1 0.1,-0.2 v -0.1 l 0.1,-0.1 0.1,-0.1 0.1,-0.1 0.2,-0.1 0.1,-0.1 h 0.1 l 0.2,-0.1 0.1,-0.1 h 0.2 0.1 0.2 l 0.1,-0.1 h 0.2 0.1 0.2 l 0.1,0.1 h 0.1 0.1 l 0.2,0.1 h 0.1 l 0.1,0.1 h 0.1 l 0.1,0.1 h 0.1 l 0.1,0.1 0.1,0.1 h 0.1 l 0.1,0.1 v 0.1 l 0.1,0.1 0.1,0.1 0.1,0.1 v 0.1 l 0.1,0.1 v 0.1 l 0.1,0.1 v 0.1 0.1 l 0.1,0.1 v 0.1 0.1 0.1 0.1 0.1 l 0.1,0.2 v 0.2 0.1 0.2 0.1 2.9 0.1 0.1 0.1 h -0.1 v 0.1 0.1 0.1 h -0.1 v 0.1 l -0.1,0.1 -0.1,0.1 h -0.1 L -12.9,0 h -0.1 -0.1 -0.1 -0.1 -0.1 -6.6 -0.1 -0.1 -0.1 -0.1 -0.1 l -0.1,-0.1 h -0.1 l -0.1,-0.1 h -0.1 V -0.3 L -21,-0.4 v -0.1 l -0.1,-0.1 V -0.7 -0.8 -0.9 -1 -1.1 h 0.1 v -0.1 -0.1 h 0.1 v -0.1 h 0.1 v -0.1 h 0.1 v -0.1 h 0.1 0.1 0.1 l 0.1,-0.1 h 0.1 0.1 0.1 2.7 z m 3.6,-1 V -3.4 -3.5 -3.7 -3.8 -3.9 -4 -4.1 -4.2 -4.3 l -0.1,-0.1 v -0.1 l -0.1,-0.1 V -4.7 L -14,-4.8 v -0.1 h -0.1 L -14.2,-5 h -0.1 l -0.1,-0.1 h -0.1 -0.1 l -0.1,-0.1 h -0.1 -0.1 -0.1 l -0.1,0.1 h -0.1 -0.1 l -0.1,0.1 h -0.1 l -0.1,0.1 -0.1,0.1 v 0.1 h -0.1 v 0.1 0.1 l -0.1,0.1 v 0.1 0.1 l -0.1,0.1 v 0.1 0.2 0.2 0.2 0.2 1.5 h 2.3 z" /></g><text
       id="text64"
       style="font-variant:normal;font-weight:bold;font-stretch:normal;font-size:23.73539925px;font-family:'Segoe UI';-inkscape-font-specification:'SegoeUI Bold';writing-mode:lr-tb;fill:#000000;fill-opacity:1;fill-rule:nonzero;stroke:none"
       transform="matrix(1,0,0,-1,126,19.3633)"><tspan
         id="tspan62"
         y="0"
         x="0 13.315559 31.306993 43.435783 50.959904 68.452896 92.306969 110.2984 125.79762 141.20189 154.51746 161.06842 173.69566 188.38786 202.74779 214.14078 226.91043 236.14349 242.88435 257.38669 271.74658 284.51624 291.25708 297.80807 312.38159 321.82828 336.33063 351.02283 365.38275 376.77573 386.00882 392.4411 398.99207 411.33447 425.83682 435.28351 441.83447 449.35858 463.71851 474.16208 483.39514 492.84186 507.20175 518.59473 527.82782 534.56866 549.07098 563.43091 576.20056 582.94141 589.49237 606.65308 617.09668 629.9375 636.48846 654.47992 668.83984 675.58069 688.35034">SOLIDWORKS Educational Product. For Instructional Use Only.</tspan></text>
</g></svg>